<svg xmlns="http://www.w3.org/2000/svg" xmlns:xlink="http://www.w3.org/1999/xlink" viewBox="0 0 2551.1 1701.69"><defs><style>.cls-1,.cls-5,.cls-8,.cls-9{fill:none;}.cls-2{clip-path:url(#clip-path);}.cls-3{font-size:12.78px;}.cls-3,.cls-4,.cls-6{fill:lime;}.cls-3,.cls-4{font-family:Arial-ItalicMT, Arial;font-style:italic;}.cls-4{font-size:12.78px;}.cls-5{stroke:lime;}.cls-5,.cls-8,.cls-9{stroke-linecap:round;stroke-linejoin:round;}.cls-5,.cls-8{stroke-width:0;}.cls-6{font-size:6.66px;font-family:StylusBT;}.cls-7{clip-path:url(#clip-path-4);}.cls-8{stroke:#f0f;}.cls-9{stroke:#0500db;stroke-width:0.72px;}</style><clipPath id="clip-path" transform="translate(271.18 321.2)"><polyline class="cls-1" points="-270.92 1380.36 2279.8 1380.36 2279.8 -320.04 -270.92 -320.04 -270.92 1380.36"/></clipPath><clipPath id="clip-path-4" transform="translate(271.18 321.2)"><polyline class="cls-1" points="-271.04 1380.48 2280.04 1380.48 2280.04 -320.28 -271.04 -320.28 -271.04 1380.48"/></clipPath></defs><g id="Capa_1" data-name="Capa 1"><g class="cls-2"><text class="cls-3" transform="matrix(0.9, -0.44, 0.44, 0.9, 378.48, 466.86)">CALZADA SOLIDARIDAD</text></g><g class="cls-2"><text class="cls-4" transform="translate(1131.76 1130.86) rotate(-4.48)"><tspan xml:space="preserve">T E R R E N O S  D E    L A UNION  G A N A D ER A REGIONAL</tspan></text><polyline class="cls-5" points="1401.14 512.73 1405.58 514.64 1399.58 519.92"/><polyline class="cls-5" points="1409.42 516.33 1408.34 516.21 1407.26 516.92 1406.3 518.37 1405.82 519.33 1405.46 521 1405.7 522.33 1406.54 523.04 1407.14 523.28 1408.22 523.4 1409.3 522.68 1410.26 521.25 1410.74 520.28 1411.1 518.61 1410.86 517.28 1410.02 516.57 1409.42 516.33"/><polyline class="cls-5" points="1417.34 520.88 1417.22 520.04 1416.38 519.33 1415.78 519.09 1414.7 518.97 1413.62 519.68 1412.66 521.13 1411.94 522.68 1411.7 524.13 1412.06 525.09 1412.9 525.8 1413.26 525.92 1414.34 526.04 1415.18 525.68 1415.9 524.85 1416.14 524.49 1416.14 523.4 1415.78 522.45 1415.06 521.73 1414.7 521.61 1413.62 521.49 1412.66 521.85 1411.94 522.68"/><polyline class="cls-5" points="1417.94 527.25 1417.46 527.37 1417.7 527.85 1418.18 527.61"/><polyline class="cls-5" points="1426.82 524.97 1426.82 524.25 1425.98 523.52 1425.38 523.28 1424.3 523.16 1423.22 523.76 1422.14 525.21 1421.54 526.88 1421.3 528.33 1421.66 529.16 1422.5 529.88 1422.74 530 1423.82 530.13 1424.78 529.76 1425.5 528.92 1425.62 528.68 1425.74 527.61 1425.38 526.64 1424.54 525.92 1424.3 525.8 1423.1 525.68 1422.26 526.04 1421.54 526.88"/><polyline class="cls-5" points="1433.18 527.73 1433.18 527 1432.34 526.28 1431.74 526.04 1430.66 525.92 1429.58 526.52 1428.62 528.09 1427.9 529.64 1427.66 531.09 1428.02 531.92 1428.86 532.64 1429.1 532.76 1430.18 532.88 1431.14 532.52 1431.86 531.68 1431.98 531.45 1432.1 530.37 1431.74 529.4 1430.9 528.68 1430.66 528.57 1429.58 528.45 1428.62 528.8 1427.9 529.64"/><polyline class="cls-5" points="1440.02 529.52 1436.78 528.21 1435.22 530.97 1435.7 530.73 1436.78 530.85 1437.74 531.21 1438.58 532.04 1438.94 532.88 1438.82 533.97 1438.58 534.68 1437.86 535.4 1436.9 535.76 1435.82 535.76 1434.86 535.28 1434.02 534.57 1433.9 534.09 1433.78 533.37"/><polyline class="cls-5" points="964.22 365 961.58 367.17 963.26 369.81 963.26 369.32 963.86 368.37 964.7 367.76 965.78 367.4 966.74 367.52 967.58 368.13 968.06 368.61 968.42 369.69 968.3 370.64 967.7 371.49 966.98 372.2 965.9 372.56 965.42 372.56 964.7 372.2"/><polyline class="cls-5" points="969.14 361.05 969.5 367.05 973.46 363.81"/><line class="cls-5" x1="969.14" y1="361.05" x2="973.7" y2="366.69"/><polyline class="cls-5" points="976.22 363.81 976.22 364.29 976.7 364.29 976.7 363.81"/><polyline class="cls-5" points="977.18 354.56 977.54 360.44 981.62 357.2"/><line class="cls-5" x1="977.18" y1="354.57" x2="981.74" y2="360.21"/><polyline class="cls-5" points="980.42 351.93 983.42 349.52 983.54 353 984.38 352.29 985.1 352.17 985.58 352.17 986.54 352.76 986.9 353.37 987.38 354.32 987.26 355.29 986.66 356.25 985.82 356.85 984.86 357.32 984.26 357.2 983.66 356.96"/><line class="cls-5" x1="989.9" y1="353.61" x2="986.78" y2="349.89"/><polyline class="cls-5" points="987.74 350.96 987.86 349.4 988.22 348.81 988.94 348.08 989.78 347.96 990.62 348.56 992.9 351.2"/><polyline class="cls-5" points="990.62 348.56 990.86 347 991.1 346.4 991.94 345.69 992.66 345.56 993.62 346.17 995.78 348.81"/><polyline class="cls-5" points="803.9 524.85 803.66 524.61 803.42 523.88 803.54 523.4 803.78 522.57 804.74 521.61 805.46 521.37 805.94 521.49 806.66 521.73 807.14 522.21 807.38 522.92 807.62 524.13 807.5 529.04 811.1 525.68"/><polyline class="cls-5" points="807.98 518.49 810.74 515.85 811.22 519.33 811.94 518.61 812.66 518.37 813.14 518.37 814.1 518.85 814.58 519.33 815.06 520.4 815.06 521.37 814.58 522.33 813.74 523.04 812.78 523.52 812.3 523.52 811.58 523.28"/><polyline class="cls-5" points="814.94 511.76 815.9 517.64 819.62 514.04"/><line class="cls-5" x1="814.94" y1="511.77" x2="820.1" y2="517.05"/><polyline class="cls-5" points="822.26 513.8 822.26 514.4 822.74 514.4 822.86 513.92"/><polyline class="cls-5" points="822.5 504.56 823.34 510.44 827.06 506.85"/><line class="cls-5" x1="822.5" y1="504.57" x2="827.54" y2="509.73"/><polyline class="cls-5" points="825.98 503.13 826.22 502.4 826.22 500.96 831.26 506.13"/><line class="cls-5" x1="834.02" y1="503.49" x2="830.66" y2="500.01"/><polyline class="cls-5" points="831.62 500.96 831.62 499.52 831.86 498.81 832.7 498.08 833.42 497.85 834.38 498.32 836.78 500.85"/><polyline class="cls-5" points="834.38 498.32 834.38 496.88 834.62 496.17 835.46 495.44 836.18 495.2 837.14 495.69 839.54 498.2"/><polyline class="cls-5" points="580.1 494.13 580.34 493.88 581.06 493.64 581.54 493.64 582.26 494 583.22 494.96 583.46 495.69 583.46 496.29 583.1 497 582.62 497.37 581.9 497.61 580.58 497.85 575.78 497.49 579.02 501.2"/><polyline class="cls-5" points="587.18 499.4 586.22 498.81 585.02 499.05 583.46 499.88 582.74 500.61 581.66 502.05 581.3 503.25 581.78 504.2 582.26 504.81 583.1 505.29 584.42 505.17 585.98 504.2 586.7 503.49 587.78 502.17 588.02 500.96 587.66 499.88 587.18 499.4"/><polyline class="cls-5" points="589.34 504.44 589.58 504.2 590.42 503.96 590.9 503.96 591.62 504.32 592.46 505.29 592.7 506.13 592.7 506.61 592.34 507.32 591.86 507.81 591.14 507.93 589.94 508.17 585.02 507.93 588.26 511.52"/><polyline class="cls-5" points="590.42 512.85 589.82 512.85 589.82 513.33 590.3 513.33"/><polyline class="cls-5" points="598.7 512.37 597.74 511.76 596.54 512 594.98 512.85 594.26 513.57 593.18 515 592.94 516.21 593.3 517.16 593.78 517.76 594.74 518.25 595.94 518.13 597.5 517.16 598.22 516.45 599.3 515 599.66 513.8 599.18 512.85 598.7 512.37"/><polyline class="cls-5" points="603.38 517.52 602.42 516.92 601.22 517.16 599.66 518 598.94 518.73 597.86 520.16 597.5 521.37 597.98 522.33 598.46 522.92 599.42 523.4 600.62 523.28 602.18 522.33 602.9 521.61 603.98 520.28 604.34 518.97 603.86 518 603.38 517.52"/><line class="cls-5" x1="601.22" y1="525.93" x2="604.82" y2="522.69"/><polyline class="cls-5" points="603.74 523.64 605.3 523.76 606.02 524 606.62 524.85 606.86 525.57 606.38 526.52 603.74 528.8"/><polyline class="cls-5" points="606.38 526.52 607.82 526.64 608.54 526.88 609.26 527.61 609.38 528.45 608.9 529.4 606.26 531.68"/><polyline class="cls-5" points="403.58 480.08 404.06 479.49 404.42 478.05 408.14 484.29"/><polyline class="cls-5" points="407.66 476.13 411.86 473.61 412.58 481.64"/><polyline class="cls-5" points="417.26 470.37 414.26 472.17 415.58 475.05 415.7 474.56 416.42 473.73 417.26 473.25 418.34 473 419.3 473.25 420.14 473.96 420.5 474.56 420.74 475.64 420.5 476.61 419.78 477.44 418.82 477.93 417.74 478.17 417.26 478.05 416.66 477.69"/><polyline class="cls-5" points="423.26 474.56 423.14 475.05 423.62 475.17 423.74 474.69"/><polyline class="cls-5" points="422.66 467.25 426.86 464.73 427.58 472.76"/><polyline class="cls-5" points="430.1 462.81 429.38 463.64 429.38 464.37 429.74 464.96 430.46 465.44 431.18 465.44 432.62 464.96 433.7 464.73 434.66 464.96 435.26 465.44 435.74 466.29 435.86 467.13 435.74 467.61 435.02 468.44 433.82 469.05 432.74 469.29 432.26 469.17 431.66 468.81 431.06 467.85 431.06 467.13 431.3 466.17 432.02 465.32 432.98 464.37 433.46 463.64 433.34 462.93 432.98 462.32 432.38 461.85 431.3 462.08 430.1 462.81"/><line class="cls-5" x1="438.26" y1="466.41" x2="435.86" y2="462.21"/><polyline class="cls-5" points="436.58 463.4 436.94 462.08 437.3 461.37 438.26 460.88 438.98 460.76 439.82 461.49 441.62 464.49"/><polyline class="cls-5" points="439.82 461.49 440.18 460.05 440.54 459.44 441.5 458.85 442.22 458.85 443.06 459.56 444.86 462.56"/><polyline class="cls-5" points="516.02 844.52 513.74 841.88 511.22 843.68 511.7 843.68 512.54 844.28 513.26 845.13 513.74 846.09 513.62 847.04 513.02 848 512.54 848.49 511.46 848.85 510.5 848.85 509.54 848.25 508.94 847.52 508.46 846.45 508.58 845.97 508.82 845.25"/><polyline class="cls-5" points="518.3 847.16 520.82 850.04 517.34 850.28 517.94 851.13 518.18 851.85 518.18 852.33 517.58 853.28 517.1 853.76 516.02 854.13 515.06 854.13 514.1 853.52 513.38 852.68 513.02 851.73 513.02 851.25 513.38 850.52"/><polyline class="cls-5" points="521.3 852.8 522.02 853.16 523.46 853.28 517.94 857.97"/><polyline class="cls-5" points="521.18 860.73 520.7 860.73 520.7 861.21 521.18 861.21"/><polyline class="cls-5" points="530.18 862.64 530.42 861.92 530.06 860.97 529.58 860.37 528.62 859.76 527.42 860 525.86 860.85 524.54 861.92 523.7 863.13 523.7 864.09 524.06 865.16 524.3 865.4 525.26 866 526.22 866 527.18 865.64 527.54 865.4 528.02 864.45 528.14 863.49 527.66 862.4 527.54 862.16 526.58 861.57 525.62 861.57 524.54 861.92"/><polyline class="cls-5" points="533.9 869.13 532.82 869.49 531.86 869.37 530.9 868.88 530.66 868.64 530.3 867.57 530.3 866.61 530.9 865.64 531.14 865.4 532.22 865.04 533.18 865.04 534.14 865.64 534.38 865.88 534.74 866.97 534.62 867.92 533.9 869.13 532.58 870.21 531.02 871.04 529.7 871.28 528.86 870.68 528.38 870.09 527.9 869.13 528.26 868.4"/><line class="cls-5" x1="531.74" y1="874.05" x2="535.46" y2="870.93"/><polyline class="cls-5" points="534.38 871.76 535.82 871.88 536.54 872.25 537.26 873.09 537.38 873.8 536.9 874.76 534.26 876.92"/><polyline class="cls-5" points="536.9 874.76 538.34 874.88 539.06 875.13 539.78 875.97 539.9 876.68 539.3 877.64 536.66 879.92"/><polyline class="cls-5" points="1156.46 1089.33 1159.82 1088.61 1159.46 1085.48 1159.22 1085.85 1158.26 1086.44 1157.3 1086.68 1156.1 1086.57 1155.38 1085.96 1154.78 1085.13 1154.66 1084.4 1154.78 1083.33 1155.26 1082.48 1156.22 1081.88 1157.18 1081.64 1158.38 1081.77 1158.74 1082.13 1159.22 1082.72"/><polyline class="cls-5" points="1151.66 1090.4 1152.62 1089.81 1153.1 1088.61 1152.98 1086.92 1152.86 1085.85 1152.14 1084.29 1151.18 1083.33 1150.1 1083.2 1149.38 1083.44 1148.54 1083.92 1148.06 1085.13 1148.06 1086.92 1148.3 1087.88 1149.02 1089.57 1149.86 1090.4 1150.94 1090.53 1151.66 1090.4"/><polyline class="cls-5" points="1143.5 1092.09 1145.9 1086.68 1140.74 1087.77"/><line class="cls-5" x1="1143.5" y1="1092.09" x2="1141.94" y2="1085.01"/><polyline class="cls-5" points="1138.34 1086.44 1138.7 1086.09 1138.22 1085.85 1137.98 1086.2"/><polyline class="cls-5" points="1136.78 1093.64 1131.98 1094.61 1133.78 1086.81"/><polyline class="cls-5" points="1125.02 1093.64 1125.14 1092.57 1125.62 1091.72 1126.58 1091.13 1126.94 1091.13 1128.02 1091.24 1128.86 1091.72 1129.46 1092.68 1129.46 1093.05 1129.34 1094.13 1128.86 1094.96 1127.9 1095.57 1127.54 1095.57 1126.46 1095.44 1125.62 1094.96 1125.02 1093.64 1124.66 1091.96 1124.66 1090.16 1125.02 1088.96 1125.98 1088.48 1126.7 1088.37 1127.78 1088.48 1128.26 1089.09"/><line class="cls-5" x1="1121.66" y1="1089.45" x2="1122.62" y2="1094.13"/><polyline class="cls-5" points="1122.38 1092.81 1121.54 1094.01 1120.94 1094.48 1119.98 1094.72 1119.14 1094.61 1118.66 1093.64 1117.82 1090.29"/><polyline class="cls-5" points="1118.66 1093.64 1117.82 1094.85 1117.22 1095.33 1116.14 1095.57 1115.42 1095.33 1114.82 1094.48 1114.1 1091.01"/><polyline class="cls-5" points="1624.46 1064.61 1624.7 1064.37 1625.3 1063.88 1625.78 1063.77 1626.5 1063.77 1627.7 1064.37 1628.18 1064.96 1628.3 1065.44 1628.3 1066.29 1628.06 1066.88 1627.34 1067.37 1626.26 1067.96 1621.58 1069.4 1625.9 1071.68"/><polyline class="cls-5" points="1630.46 1067.37 1631.3 1067.37 1632.62 1066.88 1629.26 1073.37"/><polyline class="cls-5" points="1638.98 1073.01 1638.14 1073.72 1637.18 1073.96 1636.1 1073.85 1635.86 1073.72 1635.02 1072.88 1634.78 1071.92 1634.9 1070.85 1635.14 1070.61 1635.86 1069.77 1636.82 1069.53 1637.9 1069.64 1638.26 1069.88 1638.98 1070.61 1639.22 1071.57 1638.98 1073.01 1638.14 1074.44 1637.06 1075.88 1635.86 1076.48 1634.78 1076.24 1634.18 1076.01 1633.46 1075.16 1633.46 1074.44"/><polyline class="cls-5" points="1639.46 1077.92 1638.98 1078.05 1639.1 1078.53 1639.58 1078.4"/><polyline class="cls-5" points="1648.34 1075.16 1643.06 1077.81 1647.62 1080.2"/><line class="cls-5" x1="1648.34" y1="1075.17" x2="1644.98" y2="1081.65"/><polyline class="cls-5" points="1653.02 1077.57 1651.94 1077.33 1651.22 1077.81 1650.98 1078.4 1650.98 1079.24 1651.34 1079.85 1652.42 1080.81 1653.26 1081.64 1653.5 1082.48 1653.5 1083.33 1653.02 1084.29 1652.42 1084.64 1651.94 1084.88 1650.86 1084.64 1649.66 1084.05 1648.82 1083.2 1648.7 1082.72 1648.7 1082.01 1649.18 1081.05 1649.78 1080.57 1650.74 1080.33 1651.82 1080.44 1653.26 1080.81 1653.98 1080.81 1654.58 1080.33 1654.94 1079.72 1654.94 1079.01 1654.22 1078.16 1653.02 1077.57"/><line class="cls-5" x1="1654.22" y1="1086.45" x2="1656.5" y2="1082.13"/><polyline class="cls-5" points="1655.78 1083.33 1657.22 1082.96 1658.06 1082.96 1658.9 1083.44 1659.38 1084.05 1659.26 1085.13 1657.58 1088.24"/><polyline class="cls-5" points="1659.26 1085.13 1660.58 1084.64 1661.42 1084.64 1662.26 1085.13 1662.74 1085.85 1662.62 1086.92 1660.94 1089.92"/><polyline class="cls-5" points="1900.34 937.28 1900.58 937.52 1901.18 938.13 1901.3 938.49 1901.3 939.33 1900.82 940.52 1900.22 941.13 1899.74 941.25 1899.02 941.25 1898.3 941 1897.82 940.4 1897.1 939.33 1895.3 934.76 1893.38 939.33"/><polyline class="cls-5" points="1899.26 944.13 1897.34 948.57 1892.06 942.45"/><polyline class="cls-5" points="1894.82 954.33 1896.26 951.09 1893.5 949.52 1893.74 950 1893.62 951.09 1893.14 952.04 1892.42 952.88 1891.58 953.25 1890.38 953.13 1889.78 952.88 1888.94 952.16 1888.58 951.21 1888.7 950.13 1889.18 949.16 1889.9 948.33 1890.26 948.21 1891.1 948.09"/><polyline class="cls-5" points="1887.5 954.57 1887.38 954.09 1886.9 954.21 1887.14 954.68"/><polyline class="cls-5" points="1891.7 961.64 1891.82 960.57 1891.22 959.97 1890.62 959.61 1889.9 959.73 1889.3 960.21 1888.34 961.28 1887.62 962.13 1886.78 962.49 1885.94 962.49 1884.98 962.13 1884.5 961.52 1884.38 961.04 1884.38 959.97 1884.98 958.64 1885.7 957.92 1886.18 957.68 1886.9 957.68 1887.86 958.04 1888.46 958.64 1888.82 959.61 1888.7 960.68 1888.46 962.13 1888.46 962.85 1888.94 963.45 1889.66 963.68 1890.38 963.68 1891.1 962.85 1891.7 961.64"/><polyline class="cls-5" points="1889.54 966.33 1887.62 970.88 1882.34 964.76"/><line class="cls-5" x1="1880.18" y1="969.81" x2="1884.62" y2="971.73"/><polyline class="cls-5" points="1883.3 971.25 1883.9 972.57 1883.9 973.4 1883.54 974.37 1882.94 974.85 1881.86 974.73 1878.62 973.4"/><polyline class="cls-5" points="1881.86 974.73 1882.34 976.04 1882.34 976.88 1881.98 977.85 1881.38 978.33 1880.3 978.21 1877.06 976.88"/></g><g class="cls-2"><text class="cls-6" transform="translate(1863.02 255.81)">2</text></g><g class="cls-7"><polyline class="cls-8" points="0.14 1701.68 2551.1 1701.68 2551.1 1.04 0.14 1.04 0.14 1701.68"/></g></g><g id="Capa_2" data-name="Capa 2"><polygon class="cls-9" points="324.86 538.52 365.78 514.28 380.66 539.37 324.86 538.52"/></g><g id="Capa_3" data-name="Capa 3"><polygon class="cls-9" points="381.5 505.05 396.38 530.13 380.66 539.37 365.78 514.28 381.5 505.05"/></g><g id="Capa_4" data-name="Capa 4"><polygon class="cls-9" points="397.22 495.81 411.98 520.88 396.38 530.13 381.5 505.05 397.22 495.81"/></g><g id="Capa_5" data-name="Capa 5"><polygon class="cls-9" points="412.82 486.44 427.7 511.52 411.98 520.88 397.22 495.81 412.82 486.44"/></g><g id="Capa_6" data-name="Capa 6"><polygon class="cls-9" points="428.54 477.2 443.42 502.29 427.7 511.52 412.82 486.44 428.54 477.2"/></g><g id="Capa_7" data-name="Capa 7"><polygon class="cls-9" points="444.26 467.96 459.14 493.05 443.42 502.29 428.54 477.2 444.26 467.96"/></g><g id="Capa_8" data-name="Capa 8"><polygon class="cls-9" points="459.98 458.61 474.74 483.69 459.14 493.05 444.26 467.96 459.98 458.61"/></g><g id="Capa_9" data-name="Capa 9"><polygon class="cls-9" points="475.58 449.37 490.46 474.44 474.74 483.69 459.98 458.61 475.58 449.37"/></g><g id="Capa_10" data-name="Capa 10"><polygon class="cls-9" points="491.3 440 506.18 465.2 490.46 474.44 475.58 449.37 491.3 440"/></g><g id="Capa_11" data-name="Capa 11"><polygon class="cls-9" points="504.5 432.2 524.3 454.4 506.18 465.2 491.3 440 504.5 432.2"/></g><g id="Capa_12" data-name="Capa 12"><polygon class="cls-9" points="444.62 521.97 459.5 547.04 456.38 548.85 425.89 540.74 423.86 540.21 421.82 539.37 421.73 537.57 422.25 535.4 425.21 533.46 444.62 521.97"/></g><g id="Capa_13" data-name="Capa 13"><polygon class="cls-9" points="460.22 512.61 475.1 537.68 459.5 547.04 444.62 521.97 460.22 512.61"/></g><g id="Capa_14" data-name="Capa 14"><polygon class="cls-9" points="475.94 503.37 490.82 528.45 475.1 537.68 460.22 512.61 475.94 503.37"/></g><g id="Capa_15" data-name="Capa 15"><polygon class="cls-9" points="491.66 494.13 506.54 519.21 490.82 528.45 475.94 503.37 491.66 494.13"/></g><g id="Capa_16" data-name="Capa 16"><polygon class="cls-9" points="507.38 484.76 522.14 509.85 506.54 519.21 491.66 494.13 507.38 484.76"/></g><g id="Capa_17" data-name="Capa 17"><polygon class="cls-9" points="522.98 475.52 537.86 500.61 522.14 509.85 507.38 484.76 522.98 475.52"/></g><g id="Capa_18" data-name="Capa 18"><polygon class="cls-9" points="536.18 467.73 556.1 489.81 537.86 500.61 522.98 475.52 536.18 467.73"/></g><g id="Capa_19" data-name="Capa 19"><polygon class="cls-9" points="456.38 548.85 494.3 558.8 480.5 535.4 456.38 548.85"/></g><g id="Capa_20" data-name="Capa 20"><polygon class="cls-9" points="495.48 525.59 510.62 550.64 495.98 559.28 494.3 558.8 480.1 534.75 495.48 525.59"/></g><g id="Capa_21" data-name="Capa 21"><polygon class="cls-9" points="526.34 541.28 511.48 516.24 495.48 525.59 510.62 550.64 526.34 541.28"/></g><g id="Capa_22" data-name="Capa 22"><polygon class="cls-9" points="527.12 506.92 542.06 532.04 526.34 541.28 511.48 516.24 527.12 506.92"/></g><g id="Capa_23" data-name="Capa 23"><polygon class="cls-9" points="542.91 497.62 557.66 522.8 542.06 532.04 527.12 506.92 542.91 497.62"/></g><g id="Capa_24" data-name="Capa 24"><polygon class="cls-9" points="556.1 489.81 575.9 512 557.66 522.8 542.91 497.62 556.1 489.81"/></g><g id="Capa_25" data-name="Capa 25"><polygon class="cls-9" points="519.74 565.52 558.59 575.92 561.26 574.88 546.38 549.8 519.74 565.52"/></g><g id="Capa_26" data-name="Capa 26"><polygon class="cls-9" points="562.1 540.45 576.98 565.64 561.26 574.88 546.38 549.8 562.1 540.45"/></g><g id="Capa_27" data-name="Capa 27"><polygon class="cls-9" points="577.82 531.21 592.58 556.28 576.98 565.64 562.1 540.45 577.82 531.21"/></g><g id="Capa_28" data-name="Capa 28"><polygon class="cls-9" points="591.02 523.4 610.82 545.61 592.58 556.28 577.82 531.21 591.02 523.4"/><polygon class="cls-9" points="621.02 557 610.82 545.61 585.4 560.76 599.3 576.45 621.02 557"/></g><g id="Capa_30" data-name="Capa 30"><rect class="cls-9" x="330.46" y="243.21" width="29.15" height="18.19" transform="translate(190.83 615.33) rotate(-41.79)"/></g><g id="Capa_31" data-name="Capa 31"><polygon class="cls-9" points="645.38 584.13 633.14 570.57 611.42 590 623.66 603.57 645.38 584.13"/></g><g id="Capa_32" data-name="Capa 32"><rect class="cls-9" x="354.82" y="270.33" width="29.15" height="18.19" transform="translate(178.96 638.46) rotate(-41.79)"/></g><g id="Capa_33" data-name="Capa 33"><polygon class="cls-9" points="669.62 611.37 657.5 597.68 635.78 617.13 647.9 630.8 669.62 611.37"/></g><g id="Capa_34" data-name="Capa 34"><polygon class="cls-9" points="681.86 624.92 669.62 611.37 647.9 630.8 660.02 644.37 681.86 624.92"/></g><g id="Capa_35" data-name="Capa 35"><polygon class="cls-9" points="693.98 638.49 681.86 624.92 660.02 644.37 672.26 657.92 693.98 638.49"/></g><g id="Capa_36" data-name="Capa 36"><polygon class="cls-9" points="705.5 682.76 720.74 659.61 704.92 649.13 704.18 649.88 693.98 638.49 672.26 657.92 678.62 665 705.5 682.76"/></g><g id="Capa_37" data-name="Capa 37"><polygon class="cls-9" points="736.7 670.16 720.74 659.61 705.5 682.76 721.46 693.33 736.7 670.16"/></g><g id="Capa_38" data-name="Capa 38"><rect class="cls-9" x="452.08" y="356.2" width="27.72" height="19.24" transform="translate(175.58 875.68) rotate(-56.71)"/></g><g id="Capa_39" data-name="Capa 39"><polygon class="cls-9" points="768.86 691.28 752.78 680.73 737.54 703.88 753.5 714.45 768.86 691.28"/></g><g id="Capa_40" data-name="Capa 40"><polygon class="cls-9" points="784.82 701.85 768.86 691.28 753.5 714.45 769.58 725 784.82 701.85"/></g><g id="Capa_41" data-name="Capa 41"><rect class="cls-9" x="500.2" y="387.88" width="27.72" height="19.24" transform="translate(170.8 930.19) rotate(-56.71)"/></g><g id="Capa_42" data-name="Capa 42"><polygon class="cls-9" points="818.06 720.57 809.78 718.28 800.9 712.4 785.66 735.57 797.35 743.24 802.1 744.92 818.06 720.57"/></g><g id="Capa_43" data-name="Capa 43"><polygon class="cls-9" points="832.22 724.4 824.9 751.16 802.1 744.92 818.06 720.57 832.22 724.4"/></g><g id="Capa_44" data-name="Capa 44"><rect class="cls-9" x="552.75" y="409.52" width="27.74" height="19.15" transform="translate(284.05 1176.27) rotate(-74.7)"/></g><g id="Capa_45" data-name="Capa 45"><polygon class="cls-9" points="869.3 734.61 861.98 761.25 843.38 756.21 850.7 729.45 869.3 734.61"/></g><g id="Capa_46" data-name="Capa 46"><polygon class="cls-9" points="887.78 739.64 880.46 766.4 861.98 761.25 869.3 734.61 887.78 739.64"/></g><g id="Capa_47" data-name="Capa 47"><rect class="cls-9" x="608.31" y="424.76" width="27.74" height="19.15" transform="translate(310.25 1241.08) rotate(-74.7)"/></g><g id="Capa_48" data-name="Capa 48"><polygon class="cls-9" points="916.1 747.33 926.66 775.64 927.02 779.13 898.94 771.45 906.26 744.68 916.1 747.33"/></g><g id="Capa_49" data-name="Capa 49"><polygon class="cls-9" points="890.66 708.92 887.3 709.28 879.26 707.13 871.53 735.21 916.1 747.33 912.98 739.04 890.66 708.92"/></g><g id="Capa_50" data-name="Capa 50"><polygon class="cls-9" points="861.62 702.21 879.26 707.13 871.53 735.21 853.96 730.35 861.62 702.21"/></g><g id="Capa_51" data-name="Capa 51"><polygon class="cls-9" points="844.1 697.4 861.62 702.21 853.96 730.35 836.59 725 844.1 697.4"/></g><g id="Capa_52" data-name="Capa 52"><polygon class="cls-9" points="826.46 692.61 844.1 697.4 836.59 725 818.06 720.57 826.46 692.61"/></g><g id="Capa_53" data-name="Capa 53"><polygon class="cls-9" points="814.58 686.49 822.02 691.4 826.46 692.61 818.06 720.57 809.78 718.28 798.51 710.83 814.58 686.49"/></g><g id="Capa_54" data-name="Capa 54"><polygon class="cls-9" points="799.34 676.52 814.58 686.49 798.51 710.83 782.81 700.56 799.34 676.52"/></g><g id="Capa_55" data-name="Capa 55"><path class="cls-9" d="M512.92,345.24" transform="translate(271.18 321.2)"/><polygon class="cls-9" points="799.34 676.52 784.1 666.45 767.88 690.83 782.81 700.56 799.34 676.52"/></g><g id="Capa_56" data-name="Capa 56"><polygon class="cls-9" points="768.86 656.37 784.1 666.45 767.88 690.83 752.78 680.73 768.86 656.37"/></g><g id="Capa_57" data-name="Capa 57"><polygon class="cls-9" points="753.62 646.4 768.86 656.37 752.78 680.73 738.02 670.7 753.62 646.4"/></g><g id="Capa_58" data-name="Capa 58"><polygon class="cls-9" points="738.5 636.33 753.62 646.4 738.02 670.7 722.28 660.63 738.5 636.33"/></g><g id="Capa_59" data-name="Capa 59"><polygon class="cls-9" points="725.54 627.92 738.5 636.33 722.28 660.63 704.92 649.13 725.54 627.92"/></g><g id="Capa_60" data-name="Capa 60"><polygon class="cls-9" points="752.18 600.68 773.06 620.97 785.78 608 764.9 587.61 752.18 600.68"/></g><g id="Capa_61" data-name="Capa 61"><polygon class="cls-9" points="798.5 594.92 777.62 574.52 764.9 587.61 785.78 608 798.5 594.92"/></g><g id="Capa_62" data-name="Capa 62"><polygon class="cls-9" points="790.46 561.57 777.62 574.52 798.5 594.92 811.22 581.85 790.46 561.57"/></g><g id="Capa_63" data-name="Capa 63"><polygon class="cls-9" points="824.06 568.88 803.18 548.49 790.46 561.57 811.22 581.85 824.06 568.88"/></g><g id="Capa_64" data-name="Capa 64"><polygon class="cls-9" points="836.78 555.8 815.9 535.4 803.18 548.49 824.06 568.88 836.78 555.8"/></g><g id="Capa_65" data-name="Capa 65"><polygon class="cls-9" points="837.5 513.21 815.9 535.4 836.78 555.8 849.38 542.85 837.5 513.21"/></g><g id="Capa_66" data-name="Capa 66"><polygon class="cls-9" points="777.74 641.25 792.38 626.25 813.26 646.64 802.58 657.68 777.74 641.25"/></g><g id="Capa_67" data-name="Capa 67"><polygon class="cls-9" points="805.22 613.16 825.98 633.57 813.26 646.64 792.38 626.25 805.22 613.16"/></g><g id="Capa_68" data-name="Capa 68"><polygon class="cls-9" points="817.94 600.21 838.82 620.49 825.98 633.57 805.22 613.16 817.94 600.21"/></g><g id="Capa_69" data-name="Capa 69"><polygon class="cls-9" points="830.9 586.88 847.94 603.57 849.26 609.68 838.82 620.49 817.94 600.21 830.9 586.88"/></g><g id="Capa_70" data-name="Capa 70"><polygon class="cls-9" points="835.22 644.25 823.51 636.41 802.58 657.68 825.14 672.45 835.22 644.25"/></g><g id="Capa_71" data-name="Capa 71"><polygon class="cls-9" points="851.78 651.21 842.06 678.68 829.34 675.21 825.14 672.45 835.22 644.25 841.46 648.33 851.78 651.21"/></g><g id="Capa_72" data-name="Capa 72"><polygon class="cls-9" points="859.1 653.13 863.54 672.45 874.94 687.68 842.06 678.68 851.78 651.21 859.1 653.13"/></g><g id="Capa_73" data-name="Capa 73"><polygon class="cls-9" points="853.71 629.9 859.1 653.13 841.46 648.33 823.51 636.41 849.26 609.68 853.71 629.9"/></g><g id="Capa_74" data-name="Capa 74"><polygon class="cls-9" points="870.86 545.97 884.18 558.68 860.42 582.92 857.06 570.68 864.5 552.45 870.86 545.97"/></g><g id="Capa_75" data-name="Capa 75"><polygon class="cls-9" points="897.26 571.04 884.18 558.68 863.77 579.56 877.1 592.28 897.26 571.04"/></g><g id="Capa_76" data-name="Capa 76"><polygon class="cls-9" points="905.3 578.73 907.22 596.37 878.3 599.73 877.1 592.28 897.26 571.04 905.3 578.73"/></g><g id="Capa_77" data-name="Capa 77"><polygon class="cls-9" points="909.34 614.25 907.22 596.37 878.3 599.73 880.34 617.73 909.34 614.25"/></g><g id="Capa_78" data-name="Capa 78"><polygon class="cls-9" points="911.42 632.61 909.34 614.25 880.34 617.73 882.5 635.85 911.42 632.61"/></g><g id="Capa_79" data-name="Capa 79"><rect class="cls-9" x="612.25" y="312.96" width="29.1" height="18.23" transform="translate(239.09 393.35) rotate(-6.42)"/></g><g id="Capa_80" data-name="Capa 80"><polygon class="cls-9" points="915.74 670.16 913.46 650.73 884.54 653.97 886.7 673.52 915.74 670.16"/></g><g id="Capa_81" data-name="Capa 81"><polygon class="cls-9" points="917.78 688.52 915.74 670.16 884.78 673.76 891.14 691.28 917.78 688.52"/></g><g id="Capa_82" data-name="Capa 82"><polygon class="cls-9" points="866.78 483.32 887.66 503.61 864.02 527.85 852.86 497.49 866.78 483.32"/></g><g id="Capa_83" data-name="Capa 83"><polygon class="cls-9" points="900.38 490.64 879.62 470.25 866.78 483.32 887.66 503.61 900.38 490.64"/></g><g id="Capa_84" data-name="Capa 84"><polygon class="cls-9" points="892.34 457.17 913.22 477.56 900.38 490.64 879.62 470.25 892.34 457.17"/><polygon class="cls-9" points="925.94 464.49 905.06 444.2 892.34 457.17 913.22 477.56 925.94 464.49"/></g><g id="Capa_86" data-name="Capa 86"><polygon class="cls-9" points="938.66 451.52 917.78 431.13 905.06 444.2 925.94 464.49 938.66 451.52"/></g><g id="Capa_87" data-name="Capa 87"><polygon class="cls-9" points="951.38 438.44 930.5 418.05 917.78 431.13 938.66 451.52 951.38 438.44"/></g><g id="Capa_88" data-name="Capa 88"><polygon class="cls-9" points="964.1 425.37 942.98 405.32 930.5 418.05 951.38 438.44 964.1 425.37"/></g><g id="Capa_89" data-name="Capa 89"><polygon class="cls-9" points="979.46 409.64 957.5 395.96 942.98 405.32 964.1 425.37 979.46 409.64"/></g><g id="Capa_90" data-name="Capa 90"><polygon class="cls-9" points="936.02 479.25 956.42 458.37 969.92 471.21 949.82 492.32 936.02 479.25"/></g><g id="Capa_91" data-name="Capa 91"><polygon class="cls-9" points="976.82 437.49 990.02 450.08 969.92 471.21 956.42 458.37 976.82 437.49"/></g><g id="Capa_92" data-name="Capa 92"><polygon class="cls-9" points="1003.22 462.56 990.02 450.08 969.92 471.21 983.07 483.74 1003.22 462.56"/></g><g id="Capa_93" data-name="Capa 93"><polygon class="cls-9" points="963.02 504.81 949.82 492.32 969.92 471.21 983.07 483.74 963.02 504.81"/></g><g id="Capa_94" data-name="Capa 94"><polygon class="cls-9" points="1016.42 475.17 1003.22 462.56 983.07 483.74 996.29 496.32 1016.42 475.17"/></g><g id="Capa_95" data-name="Capa 95"><polygon class="cls-9" points="976.22 517.4 963.02 504.81 983.07 483.74 996.29 496.32 976.22 517.4"/></g><g id="Capa_96" data-name="Capa 96"><polygon class="cls-9" points="1009.5 508.91 996.29 496.32 976.22 517.4 989.42 530 1009.5 508.91"/></g><g id="Capa_97" data-name="Capa 97"><polygon class="cls-9" points="1029.62 487.76 1016.42 475.17 996.29 496.32 1009.5 508.91 1029.62 487.76"/></g><g id="Capa_98" data-name="Capa 98"><polygon class="cls-9" points="1042.82 500.25 1029.62 487.76 1009.5 508.91 1021.7 520.52 1021.87 521.94 1042.82 500.25"/></g><g id="Capa_99" data-name="Capa 99"><polygon class="cls-9" points="1022.66 527.85 1021.87 521.94 1021.7 520.52 1009.5 508.91 989.42 530 993.98 534.33 995.3 545.85 1024.34 542.49 1022.66 527.85"/></g><g id="Capa_100" data-name="Capa 100"><polygon class="cls-9" points="1049.54 506.61 1042.82 500.25 1021.87 521.94 1022.66 527.85 1051.58 524.49 1049.54 506.61"/></g><g id="Capa_101" data-name="Capa 101"><polygon class="cls-9" points="1053.74 542.61 1051.58 524.49 1022.66 527.85 1024.7 545.97 1053.74 542.61"/></g><g id="Capa_102" data-name="Capa 102"><polygon class="cls-9" points="1055.78 560.73 1053.74 542.61 1024.7 545.97 1026.86 564.09 1055.78 560.73"/></g><g id="Capa_103" data-name="Capa 103"><polygon class="cls-9" points="1057.94 578.85 1055.78 560.73 1026.86 564.09 1029.02 582.21 1057.94 578.85"/></g><g id="Capa_104" data-name="Capa 104"><polygon class="cls-9" points="1060.1 596.85 1057.94 578.85 1029.02 582.21 1031.06 600.33 1060.1 596.85"/></g><g id="Capa_106" data-name="Capa 106"><polygon class="cls-9" points="1062.14 614.97 1060.1 596.85 1031.06 600.33 1033.32 619.03 1062.14 614.97"/></g><g id="Capa_107" data-name="Capa 107"><polygon class="cls-9" points="1064.3 633.09 1062.14 614.97 1033.32 619.03 1035.68 636.41 1064.3 633.09"/></g><g id="Capa_108" data-name="Capa 108"><polygon class="cls-9" points="1066.46 651.45 1064.3 633.09 1035.68 636.41 1037.42 654.45 1066.46 651.45"/></g><g id="Capa_109" data-name="Capa 109"><polygon class="cls-9" points="1068.26 669.57 1066.46 651.45 1037.42 654.45 1039.34 672.45 1068.26 669.57"/></g><g id="Capa_110" data-name="Capa 110"><polygon class="cls-9" points="1070.18 687.68 1068.26 669.57 1039.34 672.45 1041.14 690.68 1070.18 687.68"/></g><g id="Capa_111" data-name="Capa 111"><polygon class="cls-9" points="1071.98 705.8 1043.06 708.8 1041.14 690.68 1070.18 687.68 1071.98 705.8"/></g><g id="Capa_112" data-name="Capa 112"><polygon class="cls-9" points="1073.9 723.92 1071.98 705.8 1043.06 708.8 1044.86 726.92 1073.9 723.92"/></g><g id="Capa_113" data-name="Capa 113"><polygon class="cls-9" points="1075.7 742.04 1073.9 723.92 1044.86 726.92 1046.66 745.04 1075.7 742.04"/></g><g id="Capa_114" data-name="Capa 114"><polygon class="cls-9" points="1077.62 760.16 1075.7 742.04 1046.66 745.04 1048.58 763.16 1077.62 760.16"/></g><g id="Capa_115" data-name="Capa 115"><polygon class="cls-9" points="1079.42 778.28 1077.62 760.16 1048.58 763.16 1050.38 781.28 1079.42 778.28"/></g><g id="Capa_116" data-name="Capa 116"><polygon class="cls-9" points="1081.46 797.97 1079.42 778.28 1050.38 781.28 1052.18 797.97 1081.46 797.97"/></g><g id="Capa_117" data-name="Capa 117"><polygon class="cls-9" points="1022.78 797.97 1052.18 797.97 1050.07 778.17 1021.1 781.16 1022.78 797.97"/></g><g id="Capa_118" data-name="Capa 118"><polygon class="cls-9" points="1019.3 763.04 1021.1 781.16 1050.07 778.17 1048.27 760.16 1019.3 763.04"/></g><g id="Capa_119" data-name="Capa 119"><polygon class="cls-9" points="1017.38 744.92 1019.3 763.04 1048.27 760.16 1046.35 741.93 1017.38 744.92"/></g><g id="Capa_120" data-name="Capa 120"><polygon class="cls-9" points="1015.58 726.8 1044.57 723.92 1046.35 741.93 1017.38 744.92 1015.58 726.8"/></g><g id="Capa_121" data-name="Capa 121"><polygon class="cls-9" points="1013.66 708.68 1015.58 726.8 1044.57 723.92 1042.44 705.59 1013.66 708.68"/></g><g id="Capa_122" data-name="Capa 122"><polygon class="cls-9" points="1011.86 690.57 1013.66 708.68 1042.44 705.59 1040.45 687.51 1011.86 690.57"/></g><g id="Capa_123" data-name="Capa 123"><polygon class="cls-9" points="1009.94 672.33 1011.86 690.57 1040.45 687.51 1038.97 669.45 1009.94 672.33"/></g><g id="Capa_124" data-name="Capa 124"><polygon class="cls-9" points="1008.14 654.45 1009.94 672.33 1038.97 669.45 1037.07 650.78 1008.14 654.45"/></g><g id="Capa_125" data-name="Capa 125"><polygon class="cls-9" points="1005.98 636.33 1008.14 654.45 1037.07 650.78 1034.92 632.61 1005.98 636.33"/></g><g id="Capa_126" data-name="Capa 126"><polygon class="cls-9" points="1003.82 618.21 1005.98 636.33 1034.92 632.61 1032.82 614.68 1003.82 618.21"/></g><g id="Capa_127" data-name="Capa 127"><polygon class="cls-9" points="1001.78 600.21 1003.82 618.21 1032.82 614.68 1030.66 596.73 1001.78 600.21"/></g><g id="Capa_128" data-name="Capa 128"><polygon class="cls-9" points="999.62 582.09 1001.78 600.21 1030.66 596.73 1028.58 578.85 999.62 582.09"/></g><g id="Capa_129" data-name="Capa 129"><polygon class="cls-9" points="997.46 563.97 999.62 582.09 1028.58 578.85 1026.16 560.64 997.46 563.97"/></g><g id="Capa_130" data-name="Capa 130"><polygon class="cls-9" points="996.29 553.99 997.46 563.97 1026.16 560.64 1024.34 542.49 995.3 545.85 996.29 553.99"/></g><g id="Capa_131" data-name="Capa 131"><polygon class="cls-9" points="903.38 512.61 916.94 525.45 896.54 546.33 883.1 533.49 903.38 512.61"/></g><g id="Capa_132" data-name="Capa 132"><polygon class="cls-9" points="929.78 537.68 909.74 558.8 896.54 546.33 916.94 525.45 929.78 537.68"/></g><g id="Capa_133" data-name="Capa 133"><polygon class="cls-9" points="943.1 550.28 922.1 572.25 921.86 570.45 909.74 558.8 929.78 537.68 943.1 550.28"/></g><g id="Capa_134" data-name="Capa 134"><polygon class="cls-9" points="949.58 556.52 953.18 586.88 924.26 590.37 922.1 572.25 943.1 550.28 949.58 556.52"/></g><g id="Capa_135" data-name="Capa 135"><polygon class="cls-9" points="955.34 605 926.3 608.37 924.26 590.37 953.18 586.88 955.34 605"/></g><g id="Capa_136" data-name="Capa 136"><polygon class="cls-9" points="957.38 623.13 928.46 626.49 926.3 608.37 955.34 605 957.38 623.13"/></g><g id="Capa_137" data-name="Capa 137"><polygon class="cls-9" points="959.54 641.25 930.62 644.61 928.46 626.49 957.38 623.13 959.54 641.25"/></g><g id="Capa_138" data-name="Capa 138"><polygon class="cls-9" points="961.7 659.37 959.54 641.25 930.62 644.61 932.78 662.73 961.7 659.37"/></g><g id="Capa_139" data-name="Capa 139"><polygon class="cls-9" points="963.62 677.85 961.7 659.37 932.78 662.73 934.58 680.85 963.62 677.85"/></g><g id="Capa_140" data-name="Capa 140"><polygon class="cls-9" points="965.54 696.09 963.62 677.85 934.58 680.85 936.5 698.97 965.54 696.09"/></g><g id="Capa_141" data-name="Capa 141"><rect class="cls-9" x="666.15" y="376.28" width="29.18" height="18.21" transform="translate(236.42 390.38) rotate(-5.67)"/></g><g id="Capa_142" data-name="Capa 142"><polygon class="cls-9" points="969.14 732.33 967.34 714.21 938.3 717.09 940.22 735.21 969.14 732.33"/></g><g id="Capa_143" data-name="Capa 143"><polygon class="cls-9" points="971.06 750.45 969.14 732.33 940.22 735.21 942.02 753.45 971.06 750.45"/></g><g id="Capa_144" data-name="Capa 144"><polygon class="cls-9" points="972.86 768.57 971.06 750.45 942.02 753.45 943.92 772.08 972.86 768.57"/></g><g id="Capa_145" data-name="Capa 145"><polygon class="cls-9" points="975.38 792.33 945.14 784.04 943.92 772.08 972.86 768.57 975.38 792.33"/></g><g id="Capa_146" data-name="Capa 146"><polygon class="cls-9" points="1005.26 797.97 996.02 797.97 975.38 792.33 973.98 779.13 1002.98 776.37 1005.26 797.97"/></g><g id="Capa_147" data-name="Capa 147"><polygon class="cls-9" points="1001.18 758.25 1002.98 776.37 973.98 779.13 972.14 761.25 1001.18 758.25"/></g><g id="Capa_148" data-name="Capa 148"><polygon class="cls-9" points="999.26 740.13 1001.18 758.25 972.14 761.25 970.45 743.08 999.26 740.13"/></g><g id="Capa_149" data-name="Capa 149"><polygon class="cls-9" points="997.46 722 999.26 740.13 970.45 743.08 968.79 724.71 997.46 722"/></g><g id="Capa_150" data-name="Capa 150"><polygon class="cls-9" points="995.66 703.88 997.46 722 968.79 724.71 966.59 706.59 995.66 703.88"/></g><g id="Capa_151" data-name="Capa 151"><polygon class="cls-9" points="993.74 685.76 995.66 703.88 966.59 706.59 964.8 688.67 993.74 685.76"/></g><g id="Capa_152" data-name="Capa 152"><polygon class="cls-9" points="991.94 667.64 993.74 685.76 964.8 688.67 962.88 670.11 991.94 667.64"/></g><g id="Capa_153" data-name="Capa 153"><polygon class="cls-9" points="989.9 649.04 991.94 667.64 962.88 670.11 960.87 652.4 989.9 649.04"/></g><g id="Capa_154" data-name="Capa 154"><polygon class="cls-9" points="987.74 630.92 989.9 649.04 960.87 652.4 958.83 634.42 987.74 630.92"/></g><g id="Capa_155" data-name="Capa 155"><polygon class="cls-9" points="985.58 612.8 987.74 630.92 958.83 634.42 956.55 615.75 985.58 612.8"/></g><g id="Capa_156" data-name="Capa 156"><polygon class="cls-9" points="982.8 594.76 985.58 612.8 956.55 615.75 954.53 598.16 982.8 594.76"/></g><g id="Capa_157" data-name="Capa 157"><polygon class="cls-9" points="981.38 576.68 982.8 594.76 954.53 598.16 952.37 580.04 981.38 576.68"/></g><g id="Capa_158" data-name="Capa 158"><polygon class="cls-9" points="979.22 558.57 981.38 576.68 952.37 580.04 950.18 561.59 979.22 558.57"/></g><g id="Capa_159" data-name="Capa 159"><polygon class="cls-9" points="977.42 542.73 979.22 558.57 950.18 561.59 949.58 556.52 943.1 550.28 963.38 529.4 977.42 542.73"/></g><g id="Capa_160" data-name="Capa 160"><polygon class="cls-9" points="950.18 516.8 963.38 529.4 943.1 550.28 929.78 537.68 950.18 516.8"/></g><g id="Capa_161" data-name="Capa 161"><polygon class="cls-9" points="936.98 504.32 950.18 516.8 929.78 537.68 916.94 525.45 936.98 504.32"/></g><g id="Capa_162" data-name="Capa 162"><polygon class="cls-9" points="923.78 491.73 936.98 504.32 916.94 525.45 903.38 512.61 923.78 491.73"/></g><g id="Capa_163" data-name="Capa 163"><polygon class="cls-9" points="990.98 389.37 979.22 382.05 1006.46 364.64 990.98 389.37"/></g><g id="Capa_164" data-name="Capa 164"><polygon class="cls-9" points="1021.94 374.25 1006.46 364.64 990.98 389.37 1006.46 398.96 1021.94 374.25"/></g><g id="Capa_165" data-name="Capa 165"><polygon class="cls-9" points="1037.42 383.85 1021.94 374.25 1006.46 398.96 1021.94 408.56 1037.42 383.85"/></g><g id="Capa_166" data-name="Capa 166"><polygon class="cls-9" points="1052.9 393.44 1037.42 383.85 1021.94 408.56 1037.42 418.29 1052.9 393.44"/></g><g id="Capa_167" data-name="Capa 167"><polygon class="cls-9" points="1067.42 401.13 1052.9 393.44 1037.42 418.29 1055.06 427.52 1067.42 401.13"/></g><g id="Capa_168" data-name="Capa 168"><polygon class="cls-9" points="1083.98 408.81 1067.42 401.13 1055.06 427.52 1071.62 435.2 1083.98 408.81"/></g><g id="Capa_169" data-name="Capa 169"><polygon class="cls-9" points="1100.54 416.61 1083.98 408.81 1071.62 435.2 1088.06 443 1100.54 416.61"/></g><g id="Capa_170" data-name="Capa 170"><polygon class="cls-9" points="1116.98 424.29 1100.54 416.61 1088.06 443 1104.62 450.69 1116.98 424.29"/></g><g id="Capa_171" data-name="Capa 171"><polygon class="cls-9" points="1133.54 431.96 1116.98 424.29 1104.62 450.69 1121.18 458.49 1133.54 431.96"/></g><g id="Capa_172" data-name="Capa 172"><polygon class="cls-9" points="1149.98 439.76 1133.54 431.96 1121.18 458.49 1137.62 466.17 1149.98 439.76"/></g><g id="Capa_173" data-name="Capa 173"><polygon class="cls-9" points="1166.78 447.93 1149.98 439.76 1137.62 466.17 1153.58 473.85 1166.78 447.93"/></g><g id="Capa_174" data-name="Capa 174"><polygon class="cls-9" points="1183.1 456.2 1166.78 447.93 1153.58 473.85 1169.78 482.25 1183.1 456.2"/></g><g id="Capa_175" data-name="Capa 175"><polygon class="cls-9" points="1199.3 464.49 1183.1 456.2 1169.78 482.25 1186.1 490.52 1199.3 464.49"/></g><g id="Capa_176" data-name="Capa 176"><polygon class="cls-9" points="1216.22 471.32 1211.78 470.85 1199.3 464.49 1186.1 490.52 1202.18 498.69 1216.22 471.32"/></g><g id="Capa_177" data-name="Capa 177"><polygon class="cls-9" points="1234.22 473.13 1216.22 471.32 1202.18 498.69 1220.18 500.96 1234.22 473.13"/></g><g id="Capa_178" data-name="Capa 178"><polygon class="cls-9" points="1246.82 474.32 1243.82 503.37 1220.18 500.96 1234.22 473.13 1246.82 474.32"/></g><g id="Capa_179" data-name="Capa 179"><polygon class="cls-9" points="1264.94 476.25 1262.06 505.17 1243.82 503.37 1246.82 474.32 1264.94 476.25"/></g><g id="Capa_180" data-name="Capa 180"><polygon class="cls-9" points="1274.2 477.16 1264.94 476.25 1262.06 505.17 1267.58 505.76 1278.86 511.4 1282.46 480.69 1274.2 477.16"/></g><g id="Capa_181" data-name="Capa 181"><polygon class="cls-9" points="1298.9 488.73 1295.18 519.57 1278.86 511.4 1282.46 480.69 1298.9 488.73"/></g><g id="Capa_182" data-name="Capa 182"><polygon class="cls-9" points="1315.22 496.88 1298.9 488.73 1295.18 519.57 1311.5 527.61 1315.22 496.88"/></g><g id="Capa_183" data-name="Capa 183"><polygon class="cls-9" points="1333.7 503.73 1327.46 532.16 1315.82 529.76 1311.5 527.61 1315.22 496.88 1323.26 500.96 1333.7 503.73"/></g><g id="Capa_184" data-name="Capa 184"><polygon class="cls-9" points="1355.18 512.25 1343.54 539 1360.34 546.33 1371.86 519.57 1355.18 512.25"/></g><g id="Capa_185" data-name="Capa 185"><polygon class="cls-9" points="1388.66 526.76 1371.86 519.57 1360.34 546.33 1377.02 553.52 1388.66 526.76"/></g><g id="Capa_186" data-name="Capa 186"><polygon class="cls-9" points="1405.34 534.09 1393.7 560.85 1377.02 553.52 1388.66 526.76 1405.34 534.09"/></g><g id="Capa_187" data-name="Capa 187"><polygon class="cls-9" points="1422.02 541.28 1410.5 568.04 1393.7 560.85 1405.34 534.09 1422.02 541.28"/></g><g id="Capa_188" data-name="Capa 188"><polygon class="cls-9" points="1438.82 548.49 1427.18 575.25 1410.5 568.04 1422.02 541.28 1438.82 548.49"/></g><g id="Capa_189" data-name="Capa 189"><polygon class="cls-9" points="1455.5 555.8 1443.86 582.57 1427.18 575.25 1438.82 548.49 1455.5 555.8"/></g><g id="Capa_190" data-name="Capa 190"><polygon class="cls-9" points="1472.18 563 1460.66 589.76 1443.86 582.57 1455.5 555.8 1472.18 563"/></g><g id="Capa_191" data-name="Capa 191"><polygon class="cls-9" points="1488.98 570.33 1477.34 597.09 1460.66 589.76 1472.18 563 1488.98 570.33"/></g><g id="Capa_192" data-name="Capa 192"><polygon class="cls-9" points="1505.66 577.52 1494.02 604.28 1477.34 597.09 1488.98 570.33 1505.66 577.52"/></g><g id="Capa_193" data-name="Capa 193"><rect class="cls-9" x="1222.47" y="264.2" width="29.18" height="18.33" transform="translate(764.14 1619.92) rotate(-66.49)"/></g><g id="Capa_194" data-name="Capa 194"><polygon class="cls-9" points="1539.14 592.04 1527.5 618.8 1510.82 611.61 1522.46 584.85 1539.14 592.04"/></g><g id="Capa_195" data-name="Capa 195"><polygon class="cls-9" points="1555.82 599.37 1544.3 626.13 1527.5 618.8 1539.14 592.04 1555.82 599.37"/></g><g id="Capa_196" data-name="Capa 196"><polygon class="cls-9" points="1561.86 633.93 1544.34 626.37 1555.86 599.61 1560.06 601.41 1561.86 633.93"/></g><g id="Capa_197" data-name="Capa 197"><polygon class="cls-9" points="1577.9 608.97 1579.82 641.49 1596.5 648.8 1608.14 622.04 1577.9 608.97"/></g><g id="Capa_198" data-name="Capa 198"><polygon class="cls-9" points="1624.82 629.25 1608.14 622.04 1596.5 648.8 1613.3 656 1624.82 629.25"/></g><g id="Capa_199" data-name="Capa 199"><polygon class="cls-9" points="1641.62 636.57 1624.82 629.25 1613.3 656 1629.98 663.21 1641.62 636.57"/></g><g id="Capa_200" data-name="Capa 200"><polygon class="cls-9" points="1658.3 643.76 1641.62 636.57 1629.98 663.21 1646.66 670.52 1658.3 643.76"/></g><g id="Capa_201" data-name="Capa 201"><polygon class="cls-9" points="1674.98 650.97 1663.46 677.73 1646.66 670.52 1658.3 643.76 1674.98 650.97"/></g><g id="Capa_202" data-name="Capa 202"><polygon class="cls-9" points="1691.78 658.28 1680.14 685.04 1663.46 677.73 1674.98 650.97 1691.78 658.28"/></g><g id="Capa_203" data-name="Capa 203"><polygon class="cls-9" points="1708.46 665.49 1696.82 692.25 1680.14 685.04 1691.78 658.28 1708.46 665.49"/></g><g id="Capa_204" data-name="Capa 204"><polygon class="cls-9" points="1725.14 672.8 1713.62 699.57 1696.82 692.25 1708.46 665.49 1725.14 672.8"/></g><g id="Capa_205" data-name="Capa 205"><polygon class="cls-9" points="1741.94 680 1730.3 706.76 1713.62 699.57 1725.14 672.8 1741.94 680"/></g><g id="Capa_206" data-name="Capa 206"><polygon class="cls-9" points="1758.62 687.33 1746.98 714.09 1730.3 706.76 1741.94 680 1758.62 687.33"/></g><g id="Capa_207" data-name="Capa 207"><polygon class="cls-9" points="1775.3 694.52 1763.78 721.28 1780.46 728.49 1792.1 701.85 1775.3 694.52"/></g><g id="Capa_208" data-name="Capa 208"><polygon class="cls-9" points="1808.78 709.04 1797.14 735.8 1780.46 728.49 1792.1 701.85 1808.78 709.04"/></g><g id="Capa_209" data-name="Capa 209"><polygon class="cls-9" points="1825.46 716.25 1813.94 743 1797.14 735.8 1808.78 709.04 1825.46 716.25"/></g><g id="Capa_210" data-name="Capa 210"><polygon class="cls-9" points="1842.26 723.57 1830.62 750.33 1813.94 743 1825.46 716.25 1842.26 723.57"/></g><g id="Capa_211" data-name="Capa 211"><polygon class="cls-9" points="1858.94 730.76 1847.3 757.52 1830.62 750.33 1842.26 723.57 1858.94 730.76"/></g><g id="Capa_212" data-name="Capa 212"><rect class="cls-9" x="1575.75" y="417.44" width="29.18" height="18.33" transform="translate(835.98 2035.99) rotate(-66.49)"/></g><g id="Capa_213" data-name="Capa 213"><polygon class="cls-9" points="1892.42 745.28 1880.78 772.04 1864.1 764.85 1875.74 738.09 1892.42 745.28"/></g><g id="Capa_214" data-name="Capa 214"><polygon class="cls-9" points="1909.1 752.61 1897.58 779.37 1880.78 772.04 1892.42 745.28 1909.1 752.61"/></g><g id="Capa_215" data-name="Capa 215"><polygon class="cls-9" points="1925.9 759.8 1914.26 786.57 1897.58 779.37 1909.1 752.61 1925.9 759.8"/></g><g id="Capa_216" data-name="Capa 216"><polygon class="cls-9" points="1942.58 767.13 1930.94 793.88 1914.26 786.57 1925.9 759.8 1942.58 767.13"/></g><g id="Capa_217" data-name="Capa 217"><polygon class="cls-9" points="1955.18 772.52 1943.54 799.28 1930.94 793.88 1942.58 767.13 1955.18 772.52"/></g><g id="Capa_218" data-name="Capa 218"><polygon class="cls-9" points="1051.46 451.52 1042.82 470.13 995.32 424.81 994.26 423.18 994.34 422.07 994.85 421.2 995.46 420.73 996.21 420.48 997.1 420.69 997.68 421.04 1032.86 442.88 1051.46 451.52"/></g><g id="Capa_219" data-name="Capa 219"><polygon class="cls-9" points="1071.5 460.88 1059.62 486.08 1042.82 470.13 1051.46 451.52 1071.5 460.88"/></g><g id="Capa_220" data-name="Capa 220"><polygon class="cls-9" points="1088.9 469.05 1079.06 490.05 1065.38 491.49 1059.62 486.08 1071.5 460.88 1088.9 469.05"/></g><g id="Capa_221" data-name="Capa 221"><polygon class="cls-9" points="1123.34 485.25 1088.9 469.05 1079.06 490.05 1094.3 488.25 1094.66 491.61 1123.7 488.25 1123.34 485.25"/></g><g id="Capa_222" data-name="Capa 222"><polygon class="cls-9" points="1125.74 506.37 1123.7 488.25 1094.66 491.61 1096.82 509.73 1125.74 506.37"/></g><g id="Capa_223" data-name="Capa 223"><polygon class="cls-9" points="1067.42 509.73 1065.38 491.49 1094.3 488.25 1096.42 506.37 1067.42 509.73"/></g><g id="Capa_224" data-name="Capa 224"><polygon class="cls-9" points="1069.58 527.85 1067.42 509.73 1096.42 506.37 1098.5 524.49 1069.58 527.85"/></g><g id="Capa_225" data-name="Capa 225"><polygon class="cls-9" points="1127.9 524.49 1125.74 506.37 1096.82 509.73 1099.35 527.85 1127.9 524.49"/></g><g id="Capa_226" data-name="Capa 226"><polygon class="cls-9" points="1071.74 545.97 1069.58 527.85 1098.5 524.49 1100.66 542.61 1071.74 545.97"/></g><g id="Capa_227" data-name="Capa 227"><polygon class="cls-9" points="1130.06 542.49 1127.9 524.49 1099.35 527.85 1101.02 545.97 1130.06 542.49"/></g><g id="Capa_228" data-name="Capa 228"><rect class="cls-9" x="830.82" y="222.96" width="29.25" height="18.25" transform="translate(249.66 422.91) rotate(-6.8)"/></g><g id="Capa_229" data-name="Capa 229"><polygon class="cls-9" points="1073.9 564.09 1071.74 545.97 1100.66 542.61 1102.78 560.73 1073.9 564.09"/></g><g id="Capa_230" data-name="Capa 230"><polygon class="cls-9" points="1104.98 578.73 1102.78 560.73 1073.9 564.09 1075.94 582.21 1104.98 578.73"/></g><g id="Capa_231" data-name="Capa 231"><polygon class="cls-9" points="1134.26 578.73 1132.22 560.61 1103.18 564.09 1105.34 582.09 1134.26 578.73"/></g><g id="Capa_232" data-name="Capa 232"><polygon class="cls-9" points="1107.02 596.85 1104.98 578.73 1075.94 582.21 1078.1 600.33 1107.02 596.85"/></g><g id="Capa_233" data-name="Capa 233"><polygon class="cls-9" points="1136.42 596.85 1134.26 578.73 1105.34 582.09 1107.5 600.21 1136.42 596.85"/></g><g id="Capa_234" data-name="Capa 234"><polygon class="cls-9" points="1109.18 614.97 1107.02 596.85 1078.1 600.33 1080.26 618.45 1109.18 614.97"/></g><g id="Capa_235" data-name="Capa 235"><polygon class="cls-9" points="1109.54 618.33 1107.5 600.21 1136.42 596.85 1138.58 614.97 1109.54 618.33"/></g><g id="Capa_236" data-name="Capa 236"><polygon class="cls-9" points="1111.34 633.09 1109.18 614.97 1080.26 618.45 1082.3 636.45 1111.34 633.09"/></g><g id="Capa_237" data-name="Capa 237"><polygon class="cls-9" points="1140.62 633.09 1138.58 614.97 1109.54 618.33 1111.7 636.45 1140.62 633.09"/></g><g id="Capa_238" data-name="Capa 238"><polygon class="cls-9" points="1113.38 651.45 1111.34 633.09 1082.3 636.45 1084.34 654.33 1113.38 651.45"/></g><g id="Capa_239" data-name="Capa 239"><polygon class="cls-9" points="1142.66 651.45 1140.62 633.09 1111.7 636.45 1113.71 654.45 1142.66 651.45"/></g><g id="Capa_240" data-name="Capa 240"><polygon class="cls-9" points="1115.18 669.57 1113.38 651.45 1084.34 654.33 1086.26 672.45 1115.18 669.57"/></g><g id="Capa_241" data-name="Capa 241"><polygon class="cls-9" points="1144.58 669.57 1142.66 651.45 1113.71 654.45 1115.54 672.45 1144.58 669.57"/></g><g id="Capa_242" data-name="Capa 242"><polygon class="cls-9" points="1146.38 687.68 1144.58 669.57 1115.54 672.45 1117.34 690.68 1146.38 687.68"/></g><g id="Capa_243" data-name="Capa 243"><polygon class="cls-9" points="1088.06 690.68 1086.26 672.45 1115.18 669.57 1117.03 687.51 1088.06 690.68"/></g><g id="Capa_244" data-name="Capa 244"><polygon class="cls-9" points="1148.3 705.8 1146.38 687.68 1117.34 690.68 1119.26 708.8 1148.3 705.8"/></g><g id="Capa_245" data-name="Capa 245"><polygon class="cls-9" points="1089.86 708.8 1088.06 690.68 1117.03 687.51 1118.9 705.8 1089.86 708.8"/></g><g id="Capa_246" data-name="Capa 246"><polygon class="cls-9" points="1091.78 726.92 1089.86 708.8 1118.9 705.8 1120.82 723.92 1091.78 726.92"/></g><g id="Capa_247" data-name="Capa 247"><polygon class="cls-9" points="1150.1 723.92 1148.3 705.8 1119.26 708.8 1121.06 726.92 1150.1 723.92"/></g><g id="Capa_248" data-name="Capa 248"><polygon class="cls-9" points="1122.62 742.04 1120.82 723.92 1091.78 726.92 1093.58 745.04 1122.62 742.04"/></g><g id="Capa_249" data-name="Capa 249"><polygon class="cls-9" points="1151.9 742.04 1150.1 723.92 1121.06 726.92 1122.98 745.04 1151.9 742.04"/></g><g id="Capa_250" data-name="Capa 250"><polygon class="cls-9" points="1124.54 760.16 1122.62 742.04 1093.58 745.04 1095.5 763.16 1124.54 760.16"/></g><g id="Capa_251" data-name="Capa 251"><polygon class="cls-9" points="1153.82 760.16 1151.9 742.04 1122.98 745.04 1124.78 763.16 1153.82 760.16"/></g><g id="Capa_252" data-name="Capa 252"><polygon class="cls-9" points="1097.3 781.28 1095.5 763.16 1124.54 760.16 1126.34 778.28 1097.3 781.28"/></g><g id="Capa_253" data-name="Capa 253"><polygon class="cls-9" points="1126.7 781.28 1124.78 763.16 1153.82 760.16 1155.62 778.28 1126.7 781.28"/></g><g id="Capa_254" data-name="Capa 254"><polygon class="cls-9" points="1128.38 797.97 1126.7 781.28 1155.62 778.28 1157.66 797.97 1128.38 797.97"/></g><g id="Capa_255" data-name="Capa 255"><polygon class="cls-9" points="1098.98 797.97 1128.38 797.97 1126.34 778.28 1097.3 781.28 1098.98 797.97"/></g><g id="Capa_256" data-name="Capa 256"><polygon class="cls-9" points="1151.42 564.8 1174.22 546.68 1158.14 526.4 1155.1 525.81 1151.42 526.97 1149.28 527.85 1148.82 530 1148.26 531.93 1151.42 564.8"/></g><g id="Capa_257" data-name="Capa 257"><polygon class="cls-9" points="1185.62 560.85 1174.22 546.68 1151.42 564.8 1162.82 579.09 1185.62 560.85"/></g><g id="Capa_258" data-name="Capa 258"><polygon class="cls-9" points="1197.02 575.13 1185.62 560.85 1162.82 579.09 1174.8 592.9 1197.02 575.13"/></g><g id="Capa_259" data-name="Capa 259"><polygon class="cls-9" points="1208.3 589.4 1197.02 575.13 1174.8 592.9 1185.5 607.52 1208.3 589.4"/></g><g id="Capa_260" data-name="Capa 260"><polygon class="cls-9" points="1219.7 603.68 1208.3 589.4 1185.5 607.52 1196.9 621.8 1219.7 603.68"/></g><g id="Capa_261" data-name="Capa 261"><polygon class="cls-9" points="1208.3 636.09 1231.1 617.85 1219.7 603.68 1196.9 621.8 1208.3 636.09"/></g><g id="Capa_262" data-name="Capa 262"><polygon class="cls-9" points="1242.5 632.13 1231.1 617.85 1208.3 636.09 1219.7 650.37 1242.5 632.13"/></g><g id="Capa_263" data-name="Capa 263"><polygon class="cls-9" points="1230.98 664.52 1219.7 650.37 1242.5 632.13 1253.78 646.4 1230.98 664.52"/></g><g id="Capa_264" data-name="Capa 264"><polygon class="cls-9" points="1265.18 660.57 1253.78 646.4 1230.98 664.52 1242.38 678.8 1265.18 660.57"/></g><g id="Capa_265" data-name="Capa 265"><polygon class="cls-9" points="1276.58 674.85 1265.18 660.57 1242.38 678.8 1253.78 693.09 1276.58 674.85"/></g><g id="Capa_266" data-name="Capa 266"><polygon class="cls-9" points="1287.86 689.13 1276.58 674.85 1253.78 693.09 1265.06 707.37 1287.86 689.13"/></g><g id="Capa_267" data-name="Capa 267"><polygon class="cls-9" points="1299.26 703.4 1287.86 689.13 1265.06 707.37 1276.46 721.52 1299.26 703.4"/></g><g id="Capa_268" data-name="Capa 268"><polygon class="cls-9" points="1310.66 717.57 1299.26 703.4 1276.46 721.52 1287.86 735.8 1310.66 717.57"/></g><g id="Capa_269" data-name="Capa 269"><polygon class="cls-9" points="1322.06 731.85 1310.66 717.57 1287.86 735.8 1299.26 750.09 1322.06 731.85"/></g><g id="Capa_270" data-name="Capa 270"><polygon class="cls-9" points="1333.34 746.13 1322.06 731.85 1299.26 750.09 1310.54 764.25 1333.34 746.13"/></g><g id="Capa_271" data-name="Capa 271"><polygon class="cls-9" points="1344.74 760.4 1333.34 746.13 1310.54 764.25 1321.94 778.52 1344.74 760.4"/></g><g id="Capa_272" data-name="Capa 272"><polygon class="cls-9" points="1356.14 774.57 1344.74 760.4 1321.94 778.52 1333.34 792.8 1356.14 774.57"/></g><g id="Capa_273" data-name="Capa 273"><polygon class="cls-9" points="1337.42 797.97 1333.34 792.8 1356.14 774.57 1374.74 797.97 1337.42 797.97"/></g><g id="Capa_274" data-name="Capa 274"><polygon class="cls-9" points="1300.1 797.97 1296.02 792.8 1318.82 774.57 1337.42 797.97 1300.1 797.97"/></g><g id="Capa_275" data-name="Capa 275"><polygon class="cls-9" points="1284.62 778.52 1296.02 792.8 1318.82 774.57 1307.27 760.16 1284.62 778.52"/></g><g id="Capa_276" data-name="Capa 276"><polygon class="cls-9" points="1273.34 764.25 1296.02 746.07 1307.27 760.16 1284.62 778.52 1273.34 764.25"/></g><g id="Capa_277" data-name="Capa 277"><polygon class="cls-9" points="1261.94 750.09 1284.62 731.94 1296.02 746.07 1273.34 764.25 1261.94 750.09"/></g><g id="Capa_278" data-name="Capa 278"><polygon class="cls-9" points="1250.54 735.8 1273.28 717.57 1284.62 731.94 1261.94 750.09 1250.54 735.8"/></g><g id="Capa_279" data-name="Capa 279"><polygon class="cls-9" points="1239.14 721.52 1261.94 703.41 1273.28 717.57 1250.54 735.8 1239.14 721.52"/></g><g id="Capa_280" data-name="Capa 280"><polygon class="cls-9" points="1227.86 707.37 1250.54 689.22 1261.94 703.41 1239.14 721.52 1227.86 707.37"/></g><g id="Capa_281" data-name="Capa 281"><polygon class="cls-9" points="1216.46 693.09 1227.86 707.37 1250.54 689.22 1239.14 674.94 1216.46 693.09"/></g><g id="Capa_282" data-name="Capa 282"><polygon class="cls-9" points="1205.06 678.8 1227.86 660.63 1239.14 674.94 1216.46 693.09 1205.06 678.8"/></g><g id="Capa_283" data-name="Capa 283"><polygon class="cls-9" points="1193.66 664.52 1216.46 646.34 1227.86 660.63 1205.06 678.8 1193.66 664.52"/></g><g id="Capa_284" data-name="Capa 284"><polygon class="cls-9" points="1182.38 650.37 1193.66 664.52 1216.46 646.34 1205.06 632.22 1182.38 650.37"/></g><g id="Capa_285" data-name="Capa 285"><polygon class="cls-9" points="1170.98 636.09 1193.66 617.75 1205.06 632.22 1182.38 650.37 1170.98 636.09"/></g><g id="Capa_286" data-name="Capa 286"><polygon class="cls-9" points="1159.58 621.8 1170.98 636.09 1193.66 617.75 1182.38 603.68 1159.58 621.8"/></g><g id="Capa_287" data-name="Capa 287"><polygon class="cls-9" points="1156.94 618.45 1159.58 621.8 1182.38 603.68 1162.82 579.09 1151.42 564.8 1156.94 618.45"/></g><g id="Capa_288" data-name="Capa 288"><polygon class="cls-9" points="324.74 561.92 323.66 603.45 287.06 560.85 324.74 561.92"/></g><g id="Capa_289" data-name="Capa 289"><polygon class="cls-9" points="342.98 562.4 324.74 561.92 323.66 603.45 341.3 624.09 342.98 562.4"/></g><g id="Capa_290" data-name="Capa 290"><polygon class="cls-9" points="361.22 562.88 342.98 562.4 342.19 591.57 360.38 592.04 361.22 562.88"/></g><g id="Capa_291" data-name="Capa 291"><polygon class="cls-9" points="379.46 563.37 361.22 562.88 360.38 592.04 378.62 592.52 379.46 563.37"/></g><g id="Capa_292" data-name="Capa 292"><polygon class="cls-9" points="406.7 564.09 387.74 592.76 378.62 592.52 379.46 563.37 406.7 564.09"/></g><g id="Capa_293" data-name="Capa 293"><polygon class="cls-9" points="369.14 620.97 387.74 592.76 342.19 591.57 341.87 603.45 369.14 620.97"/></g><g id="Capa_294" data-name="Capa 294"><polygon class="cls-9" points="355.94 641.13 369.14 620.97 341.87 603.45 341.3 624.09 355.94 641.13"/></g><g id="Capa_295" data-name="Capa 295"><polygon class="cls-9" points="379.46 637.28 403.82 653.25 387.5 677.97 367.43 654.5 379.46 637.28"/></g><g id="Capa_296" data-name="Capa 296"><polygon class="cls-9" points="389.42 622.04 379.46 637.28 403.82 653.25 413.78 638 389.42 622.04"/></g><g id="Capa_297" data-name="Capa 297"><polygon class="cls-9" points="399.5 606.8 389.42 622.04 413.78 638 423.86 622.88 399.5 606.8"/></g><g id="Capa_298" data-name="Capa 298"><rect class="cls-9" x="136.4" y="271.43" width="18.27" height="29.19" transform="translate(97.87 570.83) rotate(-56.52)"/></g><g id="Capa_299" data-name="Capa 299"><polygon class="cls-9" points="419.54 576.33 409.58 591.57 433.94 607.64 443.9 592.4 419.54 576.33"/></g><g id="Capa_300" data-name="Capa 300"><polygon class="cls-9" points="426.38 566 419.54 576.33 443.9 592.4 456.62 572.97 430.82 566.13 426.38 566"/></g><g id="Capa_301" data-name="Capa 301"><polygon class="cls-9" points="486.38 580.88 473.66 600.21 449.32 584.13 456.62 572.97 486.38 580.88"/></g><g id="Capa_302" data-name="Capa 302"><polygon class="cls-9" points="463.7 615.45 473.66 600.21 449.32 584.13 439.35 599.37 463.7 615.45"/></g><g id="Capa_303" data-name="Capa 303"><polygon class="cls-9" points="453.62 630.68 463.7 615.45 439.35 599.37 429.32 614.64 453.62 630.68"/></g><g id="Capa_304" data-name="Capa 304"><polygon class="cls-9" points="443.66 645.92 453.62 630.68 429.32 614.64 419.54 630 443.66 645.92"/></g><g id="Capa_305" data-name="Capa 305"><polygon class="cls-9" points="433.58 661.04 443.66 645.92 419.54 630 409.58 645.32 433.58 661.04"/></g><g id="Capa_306" data-name="Capa 306"><polygon class="cls-9" points="423.5 676.28 433.58 661.04 409.58 645.32 399.5 660.56 423.5 676.28"/></g><g id="Capa_307" data-name="Capa 307"><polygon class="cls-9" points="407.66 700.46 423.5 676.28 399.5 660.56 387.5 677.97 407.66 700.46"/></g><g id="Capa_308" data-name="Capa 308"><polygon class="cls-9" points="1167.62 706.64 1190.42 688.4 1176.38 670.78 1171.7 670.11 1167.62 671.53 1165.41 673.46 1163.59 676.83 1163.3 681.21 1165.59 703.4 1167.62 706.64"/></g><g id="Capa_309" data-name="Capa 309"><polygon class="cls-9" points="1178.9 720.92 1201.7 702.68 1190.42 688.4 1167.62 706.64 1178.9 720.92"/></g><g id="Capa_310" data-name="Capa 310"><polygon class="cls-9" points="1190.3 735.09 1213.1 716.97 1201.7 702.68 1178.9 720.92 1190.3 735.09"/></g><g id="Capa_311" data-name="Capa 311"><polygon class="cls-9" points="1202.66 750.57 1165.59 703.4 1170.38 750.57 1202.66 750.57"/></g><g id="Capa_312" data-name="Capa 312"><polygon class="cls-9" points="1224.5 731.25 1213.1 716.97 1190.3 735.09 1201.7 749.34 1224.5 731.25"/></g><g id="Capa_313" data-name="Capa 313"><polygon class="cls-9" points="1235.9 745.4 1224.5 731.25 1201.7 749.34 1213.1 763.64 1235.9 745.4"/></g><g id="Capa_314" data-name="Capa 314"><polygon class="cls-9" points="1217.18 768.8 1172.3 768.8 1170.38 750.57 1202.66 750.57 1217.18 768.8"/></g><g id="Capa_315" data-name="Capa 315"><polygon class="cls-9" points="1193.18 797.97 1175.3 797.97 1172.3 768.8 1193.18 768.8 1193.18 797.97"/></g><g id="Capa_316" data-name="Capa 316"><rect class="cls-9" x="1193.18" y="768.81" width="18.24" height="29.16"/></g><g id="Capa_317" data-name="Capa 317"><rect class="cls-9" x="1211.42" y="768.81" width="18.24" height="29.16"/></g><g id="Capa_318" data-name="Capa 318"><rect class="cls-9" x="1229.66" y="768.81" width="18.24" height="29.16"/></g><g id="Capa_319" data-name="Capa 319"><polygon class="cls-9" points="1277.78 797.97 1247.9 797.97 1247.9 768.8 1254.5 768.8 1277.78 797.97"/></g><g id="Capa_320" data-name="Capa 320"><polygon class="cls-9" points="1245.18 757.11 1235.9 745.4 1213.1 763.64 1217.18 768.8 1254.5 768.8 1245.18 757.11"/></g><g id="Capa_321" data-name="Capa 321"><polygon class="cls-9" points="435.86 689.49 447.14 702.57 424.94 721.52 419.18 714.8 435.86 689.49"/></g><g id="Capa_322" data-name="Capa 322"><polygon class="cls-9" points="459.02 716.37 447.14 702.57 424.94 721.52 436.82 735.33 459.02 716.37"/></g><g id="Capa_323" data-name="Capa 323"><polygon class="cls-9" points="470.82 730.23 459.02 716.37 436.82 735.33 448.7 749.25 470.82 730.23"/></g><g id="Capa_324" data-name="Capa 324"><polygon class="cls-9" points="482.66 744.09 470.82 730.23 448.7 749.25 460.58 763.04 482.66 744.09"/></g><g id="Capa_325" data-name="Capa 325"><polygon class="cls-9" points="494.54 757.88 482.66 744.09 460.58 763.04 472.46 776.85 494.54 757.88"/></g><g id="Capa_326" data-name="Capa 326"><polygon class="cls-9" points="506.42 771.68 494.54 757.88 472.46 776.85 484.34 790.76 506.42 771.68"/></g><g id="Capa_327" data-name="Capa 327"><polygon class="cls-9" points="518.3 785.61 506.42 771.68 484.34 790.76 496.22 804.57 518.3 785.61"/></g><g id="Capa_328" data-name="Capa 328"><polygon class="cls-9" points="530.18 799.4 518.3 785.61 496.22 804.57 508.1 818.37 530.18 799.4"/></g><g id="Capa_329" data-name="Capa 329"><polygon class="cls-9" points="542.06 813.21 530.18 799.4 508.1 818.37 519.98 832.16 542.06 813.21"/></g><g id="Capa_330" data-name="Capa 330"><polygon class="cls-9" points="553.94 827 542.06 813.21 519.98 832.16 531.86 846.09 553.94 827"/></g><g id="Capa_331" data-name="Capa 331"><polygon class="cls-9" points="577.7 854.73 565.82 840.92 543.62 859.88 555.5 873.68 577.7 854.73"/></g><g id="Capa_332" data-name="Capa 332"><polygon class="cls-9" points="566.05 840.93 554.17 827.01 532.09 846.09 543.85 859.89 566.05 840.93"/></g><g id="Capa_333" data-name="Capa 333"><polygon class="cls-9" points="589.58 868.52 577.7 854.73 555.5 873.68 567.38 887.49 589.58 868.52"/></g><g id="Capa_334" data-name="Capa 334"><polygon class="cls-9" points="579.26 901.4 601.38 882.4 589.58 868.52 567.38 887.49 579.26 901.4"/></g><g id="Capa_335" data-name="Capa 335"><polygon class="cls-9" points="613.34 896.25 601.38 882.4 579.26 901.4 591.14 915.21 613.34 896.25"/></g><g id="Capa_336" data-name="Capa 336"><polygon class="cls-9" points="625.1 910.04 613.34 896.25 591.14 915.21 603.02 929 625.1 910.04"/></g><g id="Capa_337" data-name="Capa 337"><polygon class="cls-9" points="636.98 923.85 625.1 910.04 603.02 929 614.9 942.92 636.98 923.85"/></g><g id="Capa_338" data-name="Capa 338"><polygon class="cls-9" points="648.86 937.76 636.98 923.85 614.9 942.92 626.78 956.73 648.86 937.76"/></g><g id="Capa_339" data-name="Capa 339"><polygon class="cls-9" points="638.66 970.52 660.74 951.57 648.86 937.76 626.78 956.73 638.66 970.52"/></g><g id="Capa_340" data-name="Capa 340"><polygon class="cls-9" points="672.62 965.37 660.74 951.57 638.66 970.52 650.54 984.33 672.62 965.37"/></g><g id="Capa_341" data-name="Capa 341"><polygon class="cls-9" points="684.5 979.16 672.62 965.37 650.54 984.33 662.42 998.25 684.5 979.16"/></g><g id="Capa_342" data-name="Capa 342"><polygon class="cls-9" points="696.38 993.09 684.5 979.16 662.42 998.25 674.3 1012.04 696.38 993.09"/></g><g id="Capa_343" data-name="Capa 343"><polygon class="cls-9" points="708.26 1006.88 696.38 993.09 674.3 1012.04 686.06 1025.85 708.26 1006.88"/></g><g id="Capa_344" data-name="Capa 344"><polygon class="cls-9" points="720.14 1020.68 708.26 1006.88 686.06 1025.85 697.94 1039.64 720.14 1020.68"/></g><g id="Capa_345" data-name="Capa 345"><polygon class="cls-9" points="732.02 1034.48 720.14 1020.68 697.94 1039.64 709.82 1053.57 732.02 1034.48"/></g><g id="Capa_346" data-name="Capa 346"><polygon class="cls-9" points="743.9 1048.4 732.02 1034.48 709.82 1053.57 721.7 1067.37 743.9 1048.4"/></g><g id="Capa_347" data-name="Capa 347"><polygon class="cls-9" points="755.78 1062.2 743.9 1048.4 721.7 1067.37 733.58 1081.16 755.78 1062.2"/></g><g id="Capa_348" data-name="Capa 348"><polygon class="cls-9" points="767.54 1076.01 755.78 1062.2 733.58 1081.16 745.46 1095.09 767.54 1076.01"/></g><g id="Capa_350" data-name="Capa 350"><image width="10204" height="6803" transform="scale(0.25)" xlink:href="../../Downloads/4x/mapa/mapaRecurso%203@4x.png"/></g><g id="Capa_351" data-name="Capa 351"><polygon class="cls-9" points="1207.22 550.52 1230.02 532.4 1224.02 524.85 1196.66 522.09 1193.66 520.53 1190.42 518.85 1188.02 518.64 1186.1 519.98 1185.5 523.03 1191.55 530.98 1207.22 550.52"/></g><g id="Capa_352" data-name="Capa 352"><polygon class="cls-9" points="1241.42 546.68 1230.02 532.4 1207.22 550.52 1218.62 564.8 1241.42 546.68"/></g><g id="Capa_353" data-name="Capa 353"><polygon class="cls-9" points="1252.7 560.85 1241.42 546.68 1218.62 564.8 1230.02 579.09 1252.7 560.85"/></g><g id="Capa_354" data-name="Capa 354"><polygon class="cls-9" points="1264.1 575.13 1252.7 560.85 1230.02 579.09 1241.3 593.37 1264.1 575.13"/></g><g id="Capa_355" data-name="Capa 355"><polygon class="cls-9" points="1275.5 589.4 1264.1 575.13 1241.3 593.37 1252.7 607.52 1275.5 589.4"/></g><g id="Capa_356" data-name="Capa 356"><polygon class="cls-9" points="1286.9 603.68 1275.5 589.4 1252.7 607.52 1264.1 621.8 1286.9 603.68"/></g><g id="Capa_357" data-name="Capa 357"><polygon class="cls-9" points="1298.18 617.85 1286.9 603.68 1264.1 621.8 1275.38 636.09 1298.18 617.85"/></g><g id="Capa_358" data-name="Capa 358"><polygon class="cls-9" points="1309.58 632.13 1298.18 617.85 1275.38 636.09 1286.78 650.37 1309.58 632.13"/></g><g id="Capa_359" data-name="Capa 359"><polygon class="cls-9" points="1320.98 646.4 1309.58 632.13 1286.78 650.37 1298.18 664.52 1320.98 646.4"/></g><g id="Capa_360" data-name="Capa 360"><polygon class="cls-9" points="1332.38 660.57 1320.98 646.4 1298.18 664.52 1309.58 678.8 1332.38 660.57"/></g><g id="Capa_361" data-name="Capa 361"><polygon class="cls-9" points="1343.66 674.85 1332.38 660.57 1309.58 678.8 1320.86 693.09 1343.66 674.85"/></g><g id="Capa_362" data-name="Capa 362"><polygon class="cls-9" points="1355.06 689.13 1343.66 674.85 1320.86 693.09 1332.26 707.37 1355.06 689.13"/></g><g id="Capa_363" data-name="Capa 363"><polygon class="cls-9" points="1366.46 703.4 1355.06 689.13 1332.26 707.37 1343.66 721.52 1366.46 703.4"/></g><g id="Capa_364" data-name="Capa 364"><polygon class="cls-9" points="1377.86 717.57 1366.46 703.4 1343.66 721.52 1355.06 735.8 1377.86 717.57"/></g><g id="Capa_365" data-name="Capa 365"><polygon class="cls-9" points="1389.14 731.85 1377.86 717.57 1355.06 735.8 1366.34 750.09 1389.14 731.85"/></g><g id="Capa_366" data-name="Capa 366"><polygon class="cls-9" points="1400.54 746.13 1389.14 731.85 1366.34 750.09 1377.74 764.25 1400.54 746.13"/></g><g id="Capa_367" data-name="Capa 367"><polygon class="cls-9" points="1411.94 760.4 1400.54 746.13 1377.74 764.25 1389.14 778.52 1411.94 760.4"/></g><g id="Capa_368" data-name="Capa 368"><polygon class="cls-9" points="1423.22 774.57 1411.94 760.4 1389.14 778.52 1400.54 792.8 1423.22 774.57"/></g><g id="Capa_369" data-name="Capa 369"><polygon class="cls-9" points="1441.94 797.97 1423.22 774.57 1400.54 792.8 1404.62 797.97 1441.94 797.97"/></g><g id="Capa_370" data-name="Capa 370"><polygon class="cls-9" points="1479.26 797.97 1460.54 774.57 1437.83 792.8 1441.94 797.97 1479.26 797.97"/></g><g id="Capa_371" data-name="Capa 371"><polygon class="cls-9" points="1449.26 760.4 1426.46 778.52 1437.83 792.8 1460.54 774.57 1449.26 760.4"/></g><g id="Capa_372" data-name="Capa 372"><polygon class="cls-9" points="1437.86 746.13 1415.06 764.25 1423.22 774.57 1426.46 778.52 1449.26 760.4 1437.86 746.13"/></g><g id="Capa_373" data-name="Capa 373"><polygon class="cls-9" points="1426.46 731.85 1403.72 749.88 1415.06 764.25 1437.86 746.13 1426.46 731.85"/></g><g id="Capa_374" data-name="Capa 374"><polygon class="cls-9" points="1415.06 717.57 1426.46 731.85 1403.72 749.88 1392.31 735.8 1415.06 717.57"/></g><g id="Capa_375" data-name="Capa 375"><polygon class="cls-9" points="1403.78 703.4 1380.95 721.52 1392.31 735.8 1415.06 717.57 1403.78 703.4"/></g><g id="Capa_376" data-name="Capa 376"><polygon class="cls-9" points="1392.38 689.13 1369.65 707.19 1380.95 721.52 1403.78 703.4 1392.38 689.13"/></g><g id="Capa_377" data-name="Capa 377"><polygon class="cls-9" points="1380.98 674.85 1358.18 693.09 1369.65 707.19 1392.38 689.13 1380.98 674.85"/></g><g id="Capa_378" data-name="Capa 378"><polygon class="cls-9" points="1369.7 660.57 1346.9 678.8 1358.18 693.09 1380.98 674.85 1369.7 660.57"/></g><g id="Capa_379" data-name="Capa 379"><polygon class="cls-9" points="1358.3 646.4 1335.47 664.52 1346.9 678.8 1369.7 660.57 1358.3 646.4"/></g><g id="Capa_380" data-name="Capa 380"><polygon class="cls-9" points="1346.9 632.13 1324.1 650.37 1335.47 664.52 1358.3 646.4 1346.9 632.13"/></g><g id="Capa_381" data-name="Capa 381"><polygon class="cls-9" points="1335.5 617.85 1312.7 636.09 1324.1 650.37 1346.9 632.13 1335.5 617.85"/></g><g id="Capa_382" data-name="Capa 382"><polygon class="cls-9" points="1324.22 603.68 1301.35 621.8 1312.7 636.09 1335.5 617.85 1324.22 603.68"/></g><g id="Capa_383" data-name="Capa 383"><polygon class="cls-9" points="1312.82 589.4 1290.31 607.3 1301.35 621.8 1324.22 603.68 1312.82 589.4"/></g><g id="Capa_384" data-name="Capa 384"><polygon class="cls-9" points="1301.42 575.13 1278.98 592.9 1290.31 607.3 1312.82 589.4 1301.42 575.13"/></g><g id="Capa_385" data-name="Capa 385"><polygon class="cls-9" points="1290.02 560.85 1267.22 579.09 1278.98 592.9 1301.42 575.13 1290.02 560.85"/></g><g id="Capa_386" data-name="Capa 386"><polygon class="cls-9" points="1278.74 546.68 1255.94 564.8 1267.22 579.09 1290.02 560.85 1278.74 546.68"/></g><g id="Capa_387" data-name="Capa 387"><polygon class="cls-9" points="1267.34 532.4 1244.48 550.52 1255.94 564.8 1278.74 546.68 1267.34 532.4"/></g><g id="Capa_388" data-name="Capa 388"><polygon class="cls-9" points="1260.98 528.57 1224.02 524.85 1244.48 550.52 1267.34 532.4 1263.86 530.13 1260.98 528.57"/></g><g id="Capa_389" data-name="Capa 389"><polygon class="cls-9" points="1342.46 563.97 1321.19 554.65 1317.62 554.61 1315.22 554.61 1312.82 556.78 1312.7 559.28 1312.82 561.33 1325.66 577.4 1342.46 563.97"/></g><g id="Capa_390" data-name="Capa 390"><polygon class="cls-9" points="1363.22 572.97 1342.46 563.97 1325.66 577.4 1338.02 593 1363.22 572.97"/></g><g id="Capa_391" data-name="Capa 391"><polygon class="cls-9" points="1405.58 591.33 1363.22 572.97 1360.88 574.83 1386.26 606.68 1405.58 591.33"/></g><g id="Capa_392" data-name="Capa 392"><polygon class="cls-9" points="1420.94 603.33 1414.46 595.16 1405.58 591.33 1386.26 606.68 1398.14 621.45 1420.94 603.33"/></g><g id="Capa_393" data-name="Capa 393"><polygon class="cls-9" points="1432.22 617.49 1420.94 603.33 1398.14 621.45 1409.42 635.73 1432.22 617.49"/></g><g id="Capa_394" data-name="Capa 394"><polygon class="cls-9" points="1443.62 631.76 1432.22 617.49 1409.42 635.73 1420.82 650 1443.62 631.76"/></g><g id="Capa_395" data-name="Capa 395"><polygon class="cls-9" points="1455.02 646.04 1443.62 631.76 1420.82 650 1432.22 664.16 1455.02 646.04"/></g><g id="Capa_396" data-name="Capa 396"><polygon class="cls-9" points="1466.42 660.21 1455.02 646.04 1432.22 664.16 1443.62 678.45 1466.42 660.21"/></g><g id="Capa_397" data-name="Capa 397"><polygon class="cls-9" points="1477.7 674.49 1466.42 660.21 1443.62 678.45 1454.9 692.73 1477.7 674.49"/></g><g id="Capa_398" data-name="Capa 398"><polygon class="cls-9" points="1489.1 688.76 1477.7 674.49 1454.9 692.73 1466.3 707 1489.1 688.76"/></g><g id="Capa_399" data-name="Capa 399"><polygon class="cls-9" points="1500.5 703.04 1489.1 688.76 1466.3 707 1477.7 721.16 1500.5 703.04"/></g><g id="Capa_400" data-name="Capa 400"><polygon class="cls-9" points="1511.78 717.21 1500.5 703.04 1477.7 721.16 1488.98 735.45 1511.78 717.21"/></g><g id="Capa_401" data-name="Capa 401"><polygon class="cls-9" points="1523.18 731.49 1511.78 717.21 1488.98 735.45 1500.38 749.73 1523.18 731.49"/></g><g id="Capa_402" data-name="Capa 402"><polygon class="cls-9" points="1534.58 745.76 1523.18 731.49 1500.38 749.73 1511.78 763.88 1534.58 745.76"/></g><g id="Capa_403" data-name="Capa 403"><polygon class="cls-9" points="1545.98 760.04 1534.58 745.76 1511.78 763.88 1523.18 778.16 1545.98 760.04"/></g><g id="Capa_404" data-name="Capa 404"><polygon class="cls-9" points="1557.26 774.21 1545.98 760.04 1523.18 778.16 1534.46 792.45 1557.26 774.21"/></g><g id="Capa_405" data-name="Capa 405"><polygon class="cls-9" points="1576.22 797.97 1557.26 774.21 1534.46 792.45 1538.9 797.97 1576.22 797.97"/></g><g id="Capa_406" data-name="Capa 406"><polygon class="cls-9" points="1501.58 797.97 1497.14 792.45 1519.49 774.57 1538.9 797.97 1501.58 797.97"/></g><g id="Capa_407" data-name="Capa 407"><polygon class="cls-9" points="1485.86 778.16 1497.14 792.45 1519.49 774.57 1508.21 760.4 1485.86 778.16"/></g><g id="Capa_408" data-name="Capa 408"><polygon class="cls-9" points="1474.46 763.88 1485.86 778.16 1508.21 760.4 1497.14 746.13 1474.46 763.88"/></g><g id="Capa_409" data-name="Capa 409"><polygon class="cls-9" points="1463.06 749.73 1474.46 763.88 1497.14 746.13 1485.41 731.85 1463.06 749.73"/></g><g id="Capa_410" data-name="Capa 410"><polygon class="cls-9" points="1451.78 735.45 1474.13 717.57 1485.41 731.85 1463.06 749.73 1451.78 735.45"/></g><g id="Capa_411" data-name="Capa 411"><polygon class="cls-9" points="1440.38 721.16 1462.72 703.41 1474.13 717.57 1451.78 735.45 1440.38 721.16"/></g><g id="Capa_412" data-name="Capa 412"><polygon class="cls-9" points="1428.98 707 1451.21 689.22 1462.72 703.41 1440.38 721.16 1428.98 707"/></g><g id="Capa_413" data-name="Capa 413"><polygon class="cls-9" points="1417.58 692.73 1440.38 674.39 1451.21 689.22 1428.98 707 1417.58 692.73"/></g><g id="Capa_414" data-name="Capa 414"><polygon class="cls-9" points="1406.3 678.45 1417.58 692.73 1440.38 674.39 1428.65 660.57 1406.3 678.45"/></g><g id="Capa_415" data-name="Capa 415"><polygon class="cls-9" points="1394.9 664.16 1417.58 646.4 1428.65 660.57 1406.3 678.45 1394.9 664.16"/></g><g id="Capa_416" data-name="Capa 416"><polygon class="cls-9" points="1383.5 650 1406.18 631.62 1417.58 646.4 1394.9 664.16 1383.5 650"/></g><g id="Capa_417" data-name="Capa 417"><polygon class="cls-9" points="1372.1 635.73 1394.45 617.85 1406.18 631.62 1383.5 650 1372.1 635.73"/></g><g id="Capa_418" data-name="Capa 418"><polygon class="cls-9" points="1360.82 621.45 1383.17 603.68 1394.45 617.85 1372.1 635.73 1360.82 621.45"/></g><g id="Capa_419" data-name="Capa 419"><polygon class="cls-9" points="1349.42 607.16 1371.77 589.4 1383.17 603.68 1360.82 621.45 1349.42 607.16"/></g><g id="Capa_420" data-name="Capa 420"><polygon class="cls-9" points="1343.54 599.61 1338.02 593 1360.88 574.83 1371.77 589.4 1349.42 607.16 1343.54 599.61"/></g><g id="Capa_421" data-name="Capa 421"><polygon class="cls-9" points="1478.18 647 1497.86 631.4 1454.02 612.28 1452.38 612.38 1451.81 613.32 1452.09 614.27 1478.18 647"/></g><g id="Capa_422" data-name="Capa 422"><polygon class="cls-9" points="1516.34 639.45 1497.86 631.4 1478.18 647 1489.34 661.04 1516.34 639.45"/></g><g id="Capa_423" data-name="Capa 423"><polygon class="cls-9" points="1554.5 656 1516.34 639.45 1511.78 643.09 1542.14 680.37 1554.5 656"/></g><g id="Capa_424" data-name="Capa 424"><polygon class="cls-9" points="1500.74 675.21 1489.34 661.04 1511.78 643.09 1523.32 657.26 1500.74 675.21"/></g><g id="Capa_425" data-name="Capa 425"><polygon class="cls-9" points="1512.02 689.49 1500.74 675.21 1523.32 657.26 1534.82 671.37 1512.02 689.49"/></g><g id="Capa_426" data-name="Capa 426"><polygon class="cls-9" points="1527.62 708.92 1512.02 689.49 1534.82 671.37 1542.14 680.37 1527.62 708.92"/></g><g id="Capa_427" data-name="Capa 427"><polygon class="cls-9" points="1568.54 666.8 1590.26 693.92 1569.5 710.49 1555.46 692.85 1568.54 666.8"/></g><g id="Capa_428" data-name="Capa 428"><polygon class="cls-9" points="1545.62 731.49 1568.42 713.37 1567.46 712.16 1569.5 710.49 1555.46 692.85 1539.62 723.92 1545.62 731.49"/></g><g id="Capa_429" data-name="Capa 429"><polygon class="cls-9" points="1556.9 745.76 1579.7 727.52 1568.42 713.37 1545.62 731.49 1556.9 745.76"/></g><g id="Capa_430" data-name="Capa 430"><polygon class="cls-9" points="1601.66 708.21 1590.26 693.92 1567.46 712.16 1578.78 726.36 1601.66 708.21"/></g><g id="Capa_431" data-name="Capa 431"><polygon class="cls-9" points="1590.14 740.61 1578.78 726.36 1601.66 708.21 1612.94 722.49 1590.14 740.61"/></g><g id="Capa_432" data-name="Capa 432"><polygon class="cls-9" points="1568.3 760.04 1556.9 745.76 1579.7 727.52 1591.1 741.8 1568.3 760.04"/></g><g id="Capa_433" data-name="Capa 433"><polygon class="cls-9" points="1602.35 756.21 1591.1 741.8 1568.3 760.04 1579.7 774.21 1602.35 756.21"/></g><g id="Capa_434" data-name="Capa 434"><polygon class="cls-9" points="1613.84 770.29 1602.35 756.21 1579.7 774.21 1591.1 788.49 1613.84 770.29"/><polygon class="cls-9" points="1624.34 736.76 1612.94 722.49 1590.14 740.61 1601.66 754.79 1624.34 736.76"/></g><g id="Capa_436" data-name="Capa 436"><polygon class="cls-9" points="1635.74 750.92 1624.34 736.76 1601.66 754.79 1612.94 769.16 1635.74 750.92"/></g><g id="Capa_437" data-name="Capa 437"><polygon class="cls-9" points="1647.14 765.21 1635.74 750.92 1612.94 769.16 1624.34 783.45 1647.14 765.21"/></g><g id="Capa_438" data-name="Capa 438"><polygon class="cls-9" points="1663.7 785.97 1647.14 765.21 1624.34 783.45 1630.46 791.13 1663.7 785.97"/></g><g id="Capa_439" data-name="Capa 439"><polygon class="cls-9" points="1597.22 796.16 1630.46 791.13 1613.84 770.29 1591.1 788.49 1597.22 796.16"/></g></svg>